<svg width="334" height="63" viewBox="0 0 334 63" fill="none" xmlns="http://www.w3.org/2000/svg">
<path fill-rule="evenodd" clip-rule="evenodd" d="M15.546 3.01907C15.5457 2.18454 16.2224 1.50737 17.0574 1.50708C17.8925 1.50677 18.5696 2.18349 18.5699 3.01854C18.5702 3.85359 17.8935 4.53078 17.0585 4.53107C16.6573 4.5312 16.2726 4.37196 15.989 4.08839C15.7053 3.80482 15.5459 3.42017 15.5459 3.01907H15.546Z" fill="#FFEDB2"/>
<path fill-rule="evenodd" clip-rule="evenodd" d="M77.0625 60.9291C77.063 60.0941 77.7402 59.4177 78.5752 59.4181C79.4102 59.4185 80.0867 60.0956 80.0864 60.9305C80.0862 61.7654 79.4093 62.4421 78.5743 62.4421C78.1732 62.442 77.7886 62.2826 77.505 61.9988C77.2214 61.7151 77.0624 61.3302 77.0626 60.9291H77.0625Z" fill="#FFEDB2"/>
<path fill-rule="evenodd" clip-rule="evenodd" d="M330.394 49.269C330.394 48.6569 330.762 48.1057 331.327 47.8719C331.892 47.6381 332.543 47.7677 332.975 48.2003C333.407 48.6328 333.536 49.2832 333.302 49.8481C333.068 50.4131 332.516 50.7812 331.905 50.781C331.07 50.7807 330.394 50.1038 330.394 49.269H330.394Z" fill="#FFEDB2"/>
<path fill-rule="evenodd" clip-rule="evenodd" d="M229.441 4.68806C229.441 4.07704 229.809 3.52559 230.374 3.29137C230.939 3.05714 231.59 3.18628 232.022 3.61858C232.455 4.05086 232.584 4.70116 232.35 5.26624C232.117 5.83131 231.565 6.19987 230.954 6.20007C230.553 6.2002 230.168 6.04094 229.884 5.75737C229.601 5.47382 229.441 5.08916 229.441 4.68806Z" fill="#FFEDB2"/>
<path fill-rule="evenodd" clip-rule="evenodd" d="M223.12 43.51C223.12 42.8981 223.488 42.3461 224.053 42.1115C224.619 41.877 225.27 42.0061 225.703 42.4387C226.135 42.8713 226.265 43.5221 226.031 44.0877C225.797 44.6532 225.245 45.022 224.633 45.022C223.798 45.022 223.121 44.3452 223.12 43.51H223.12Z" fill="#FFEDB2"/>
<path fill-rule="evenodd" clip-rule="evenodd" d="M314.026 1.50304C314.026 0.891068 314.395 0.339371 314.96 0.105194C315.526 -0.128983 316.177 0.000473022 316.609 0.433197C317.042 0.865921 317.171 1.51671 316.937 2.08208C316.703 2.64745 316.151 3.01605 315.539 3.01604C314.704 3.01599 314.026 2.33861 314.026 1.50304Z" fill="#FFEDB2"/>
<path fill-rule="evenodd" clip-rule="evenodd" d="M144.36 14.7821C144.36 14.1701 144.729 13.6184 145.294 13.3842C145.86 13.1501 146.51 13.2795 146.943 13.7122C147.376 14.145 147.505 14.7958 147.271 15.3611C147.037 15.9265 146.485 16.2951 145.873 16.2951C145.472 16.2953 145.087 16.136 144.803 15.8522C144.519 15.5684 144.36 15.1834 144.36 14.7821Z" fill="#FFEDB2"/>
<path fill-rule="evenodd" clip-rule="evenodd" d="M0 32.979C0.000244141 32.1435 0.677429 31.4668 1.51245 31.467C2.34753 31.4673 3.02423 32.1445 3.02399 32.9796C3.02368 33.8146 2.3465 34.4913 1.51147 34.4911C0.676636 34.4908 0 33.8139 0 32.979Z" fill="#FFEDB2"/>
</svg>
