<svg width="182" height="177" viewBox="0 0 182 177" fill="none" xmlns="http://www.w3.org/2000/svg">
<path fill-rule="evenodd" clip-rule="evenodd" d="M81.4243 99.7977C81.4243 99.7977 88.414 98.1553 91.8925 99.9699C94.4093 101.282 97.4313 104.41 98.2402 113.867C92.7575 116.066 87.1111 117.296 81.4245 117.531C81.4243 117.531 80.1181 106.476 81.4243 99.7977Z" fill="#F3AE92"/>
<path opacity="0.5" fill-rule="evenodd" clip-rule="evenodd" d="M87.7421 116.886C87.966 114.094 88.167 109.389 87.3076 106.543C86.6 104.2 84.2322 102.255 81.1444 101.596C80.7203 106.898 80.8122 112.26 81.4176 117.525C83.5325 117.485 85.644 117.271 87.7422 116.886H87.7421Z" fill="#EB7C74"/>
<path opacity="0.2" fill-rule="evenodd" clip-rule="evenodd" d="M91.8918 99.968C90.2008 99.264 88.44 98.979 86.6836 99.1251C88.4159 99.2359 93.9317 101.165 95.5314 106.494C96.2416 109.015 96.7459 111.647 97.0343 114.338C97.8061 114.051 98.2448 113.865 98.2448 113.865C97.4334 104.408 94.4085 101.28 91.8918 99.968Z" fill="white"/>
<path fill-rule="evenodd" clip-rule="evenodd" d="M29.4368 111.282C26.1893 109.844 26.3654 109.592 23.3707 108.025C20.376 106.458 19.9879 106.294 17.411 104.903C14.8341 103.512 5.70905 101.699 1.66614 118.877C-2.49951 136.579 2.1403 142.355 4.86448 145.281C9.09985 149.833 18.8741 154.977 21.705 156.651C21.705 156.653 16.1595 127.623 29.4368 111.282Z" fill="#F29297"/>
<path fill-rule="evenodd" clip-rule="evenodd" d="M29.4368 111.282C26.1893 109.844 26.3654 109.592 23.3707 108.025C20.376 106.458 19.9879 106.294 17.411 104.903C14.8341 103.512 5.70905 101.699 1.66614 118.877C-2.49951 136.579 2.1403 142.355 4.86448 145.281C9.09985 149.833 18.8741 154.977 21.705 156.651C21.705 156.653 16.1595 127.623 29.4368 111.282Z" fill="#F29297"/>
<path fill-rule="evenodd" clip-rule="evenodd" d="M28.77 111.579C24.4144 109.889 18.493 106.458 16.4326 105.712C14.3722 104.966 11.2831 105.19 9.58365 107.279C7.88416 109.369 12.0633 107.257 17.057 109.717C22.0508 112.177 24.1534 113.649 25.8175 114.573C27.4816 115.497 28.77 111.579 28.77 111.579Z" fill="#F5A9A7"/>
<path opacity="0.5" fill-rule="evenodd" clip-rule="evenodd" d="M14.7202 126.703C11.7704 124.76 8.55436 122.809 6.65924 119.754C2.8173 113.552 5.84769 108.558 8.24682 106.112C5.73561 108.14 3.28862 111.973 1.66419 118.879C-2.50147 136.581 2.13834 142.357 4.86252 145.284C9.09789 149.835 18.8722 154.979 21.7031 156.654C20.2966 148.238 20.1987 139.474 21.4162 130.997C19.1087 129.56 16.8695 128.118 14.7202 126.703Z" fill="#EC6469"/>
<path opacity="0.5" fill-rule="evenodd" clip-rule="evenodd" d="M5.18019 109.717C3.59495 112.397 2.39964 115.512 1.66614 118.877C-2.49951 136.579 2.1403 142.355 4.86448 145.281C9.09985 149.833 18.8741 154.977 21.7051 156.651C20.944 152.117 20.5598 147.467 20.5603 142.8C15.9755 140.141 11.5617 136.901 7.37017 133.118C-1.4995 124.726 4.66101 110.835 5.18019 109.717Z" fill="#E73555"/>
<path fill-rule="evenodd" clip-rule="evenodd" d="M40.4839 164.567C40.1911 165.143 39.7156 165.462 39.2229 165.414C38.123 165.388 35.9315 163.844 30.3204 161.282C25.8116 159.224 22.9822 158.401 22.1365 157.307C20.0297 154.578 17.412 144.326 19.3398 131.454C21.1418 119.421 26.6082 113.034 28.4855 111.759C30.0238 110.717 31.6866 110.934 34.8358 112.294C36.7412 113.116 38.6812 113.759 40.6437 114.219C41.7626 114.482 42.8297 114.674 43.8475 114.813C46.5117 115.167 46.0185 116.605 46.0185 116.605C40.3123 120.1 36.1098 127.347 34.7182 136.09C33.0094 146.392 35.2043 157.233 40.4839 164.567Z" fill="#16A461"/>
<path fill-rule="evenodd" clip-rule="evenodd" d="M28.7709 111.579C28.6753 111.633 28.5796 111.692 28.4853 111.757C27.5088 112.508 26.6109 113.456 25.8184 114.573C29.8578 116.893 33.9921 118.851 38.1977 120.434C38.1981 120.434 40.5645 120.106 42.3652 119.564C43.0087 118.905 43.6099 118.364 44.1304 117.937C43.6263 117.568 43.0857 117.315 42.528 117.185C37.9971 115.772 31.5334 112.857 28.7709 111.579Z" fill="#3EC664"/>
<path fill-rule="evenodd" clip-rule="evenodd" d="M19.6061 129.911C19.5132 130.417 19.4189 130.922 19.3329 131.452C17.4051 144.324 20.016 154.578 22.1296 157.305C22.9753 158.399 25.8034 159.222 30.3135 161.28C35.9248 163.842 38.1163 165.386 39.216 165.412C39.7088 165.46 40.1843 165.141 40.4772 164.565C35.6511 157.872 33.3871 148.187 34.4136 138.625C29.2764 135.876 24.2785 132.887 19.6061 129.911Z" fill="#16935D"/>
<path fill-rule="evenodd" clip-rule="evenodd" d="M39.2226 165.411C39.7154 165.46 40.1912 165.141 40.4838 164.564C38.2694 161.557 36.574 157.839 35.5334 153.709L31.2312 148.529C31.2312 148.529 25.3453 145.851 18.6807 141.66C18.8556 149.534 20.6261 155.349 22.1345 157.304C22.9802 158.399 25.8083 159.222 30.3184 161.28C35.9299 163.84 38.1213 165.386 39.2226 165.411Z" fill="#0E7F4C"/>
<path fill-rule="evenodd" clip-rule="evenodd" d="M26.9031 135.522C28.165 125.24 33.3923 116.922 40.3419 114.138C38.6264 113.718 36.9286 113.158 35.2566 112.462H35.2496C33.5281 112.737 24.7103 118.533 23.1186 133.185C21.576 147.379 25.5068 157.679 26.8894 159.786C27.895 160.207 29.0399 160.692 30.3269 161.278C30.9664 161.571 31.5566 161.846 32.1113 162.111C27.7974 154.76 25.8973 145.059 26.9031 135.522Z" fill="#FFD348"/>
<path fill-rule="evenodd" clip-rule="evenodd" d="M33.1461 113.542C31.935 114.406 30.794 115.462 29.7441 116.69C31.0475 117.357 32.4767 118.054 33.9795 118.721C35.1618 117.443 36.4357 116.353 37.7791 115.47C36.1915 114.844 34.5944 114.173 33.1461 113.542Z" fill="#FFE568"/>
<g style="mix-blend-mode:multiply" opacity="0.1">
<path fill-rule="evenodd" clip-rule="evenodd" d="M32.1006 162.113C27.7878 154.759 25.8899 145.058 26.8977 135.52C26.9389 135.164 26.9908 134.818 27.0345 134.474C25.7493 133.716 24.4804 132.953 23.2281 132.182C23.1844 132.515 23.1393 132.845 23.101 133.187C21.5584 147.381 25.4893 157.681 26.8719 159.788H26.8814L27.5071 160.051L27.7379 160.15L28.2845 160.38L28.57 160.502L29.1547 160.757L29.4279 160.874L30.3215 161.27L31.2547 161.701L32.1006 162.113Z" fill="#E85D1C"/>
</g>
<g style="mix-blend-mode:multiply" opacity="0.3">
<path fill-rule="evenodd" clip-rule="evenodd" d="M31.2526 161.713C31.5395 161.848 31.8142 161.976 32.0805 162.109H32.0997C29.4683 157.612 27.6931 152.198 26.9502 146.402C25.7724 145.784 24.409 145.046 22.9307 144.203C23.2317 149.823 24.5975 155.214 26.8778 159.782L27.5023 160.043L27.6689 160.113L28.4407 160.443L28.5596 160.494L29.1375 160.746L29.4107 160.862L30.3015 161.258L31.2346 161.69L31.2526 161.713Z" fill="#E85D1C"/>
</g>
<path fill-rule="evenodd" clip-rule="evenodd" d="M138.662 96.2576C138.662 96.2576 136.982 95.381 130.704 98.9071C124.427 102.433 87.655 120.929 46.0156 116.599C46.0156 116.599 37.4315 114.896 32.1781 132.416C26.9247 149.936 37.1363 162.34 37.1363 162.34C37.1363 162.34 51.426 174.154 85.9117 176.471C119.087 178.699 135.089 173.305 142.115 170.713C149.407 168.014 151.906 165.861 152.332 164.501C152.746 163.195 138.662 96.2576 138.662 96.2576Z" fill="#FFD348"/>
<g style="mix-blend-mode:multiply" opacity="0.1">
<path fill-rule="evenodd" clip-rule="evenodd" d="M72.4706 150.779C59.6537 150.727 44.7354 144.447 31.1522 136.842C28.626 151.986 37.1364 162.337 37.1364 162.337C37.1364 162.337 51.4261 174.15 85.9118 176.467C119.087 178.695 135.089 173.301 142.116 170.709C149.407 168.01 151.906 165.857 152.332 164.497C151.825 160.597 151.148 156.748 150.306 152.971L124.787 144.316C107.517 148.731 90.0079 150.894 72.4707 150.779L72.4706 150.779Z" fill="#E85D1C"/>
</g>
<path fill-rule="evenodd" clip-rule="evenodd" d="M138.662 96.2576C138.662 96.2576 136.983 95.381 130.705 98.9071C124.427 102.433 87.6554 120.929 46.016 116.599C46.016 116.599 38.7748 115.175 33.5176 128.535C68.1127 145.228 108.093 132.416 120.857 126.568L139.326 117.745L142.09 112.664C140.125 103.205 138.662 96.2576 138.662 96.2576Z" fill="#FFDA60"/>
<path fill-rule="evenodd" clip-rule="evenodd" d="M130.021 107.976C130.021 107.976 139.312 97.6862 136.195 98.6756C133.079 99.6649 119.495 109.505 91.1085 116.164C75.0353 119.917 58.6702 120.259 42.5288 117.181C40.9564 117.857 39.4872 118.96 38.2002 120.432C51.0994 124.734 64.3731 126.193 77.573 124.76C107.473 121.863 124.72 111.241 130.021 107.976Z" fill="#FFE568"/>
<path d="M33.5176 128.535C68.1127 145.228 108.093 132.415 120.857 126.568" stroke="#FFEAA8" stroke-width="3"/>
<path fill-rule="evenodd" clip-rule="evenodd" d="M128.404 156.466C122.866 159.313 80.286 173 31.2305 148.533C32.2752 153.841 34.3199 158.623 37.1355 162.343C37.1355 162.343 51.4251 174.156 85.9108 176.473C119.086 178.701 135.088 173.307 142.115 170.715C149.406 168.016 151.905 165.863 152.332 164.503C151.484 158.672 150.427 152.908 149.167 147.235L128.404 156.466Z" fill="#FECB2F"/>
<g style="mix-blend-mode:multiply" opacity="0.3">
<path fill-rule="evenodd" clip-rule="evenodd" d="M152.337 164.497C152.3 163.681 152.194 162.874 152.023 162.095L140.403 161.319C126.983 170.143 69.1483 181.251 31.2305 148.527C31.6985 151.052 32.4194 153.465 33.3701 155.688C34.3934 158.159 35.6621 160.4 37.1355 162.336C37.1355 162.336 51.4251 174.15 85.9108 176.467C119.086 178.695 135.088 173.301 142.115 170.708C149.412 168.011 151.911 165.859 152.337 164.497Z" fill="#E85D1C"/>
</g>
<path d="M128.404 156.464C122.866 159.311 80.286 172.998 31.2305 148.531" stroke="#FFE568" stroke-width="3"/>
<path fill-rule="evenodd" clip-rule="evenodd" d="M45.4376 138.639C42.5685 137.744 41.1803 137.287 39.135 136.793C35.5827 135.934 35.1154 142.677 37.8643 144.906C39.997 146.62 42.3019 147.841 44.6956 148.523C46.1059 148.985 47.5512 149.185 48.9965 149.116C50.3424 149.119 51.54 147.88 51.9748 146.035C52.3856 143.83 51.6246 141.521 50.1826 140.596C48.6532 139.703 47.0627 139.047 45.4377 138.639L45.4376 138.639Z" fill="#16A461"/>
<path fill-rule="evenodd" clip-rule="evenodd" d="M37.8631 144.913C39.9959 146.628 42.3008 147.849 44.6944 148.531C46.1047 148.993 47.55 149.193 48.9953 149.124C50.201 149.098 51.2979 148.108 51.8453 146.552C46.6072 144.652 41.3253 142.236 36.1595 139.549C35.8803 141.68 36.5641 143.833 37.863 144.913H37.8631Z" fill="#16935D"/>
<path fill-rule="evenodd" clip-rule="evenodd" d="M47.3999 147.365C47.076 147.33 46.9135 147.308 46.591 147.258C46.2631 146.752 46.106 146.495 45.8 145.974C44.0074 142.854 43.3543 141.247 42.1972 140.663C41.8158 140.385 41.373 140.34 40.9687 140.539C40.5642 140.738 40.232 141.164 40.0467 141.722C39.8017 142.491 39.7954 143.375 40.029 144.152C39.6438 144.124 39.4512 144.106 39.0727 144.057C38.8164 143.01 38.8893 141.853 39.2722 140.891C39.8764 139.241 41.2522 138.537 42.4378 139.27C43.7918 139.957 44.6101 141.726 46.0666 144.282C46.2756 144.678 46.3837 144.86 46.605 145.24H46.6323C46.9139 143.36 47.0313 142.416 47.2199 140.529C47.582 140.58 47.7664 140.602 48.1299 140.631C47.9791 142.895 47.7353 145.144 47.3999 147.365V147.365Z" fill="#FFD348"/>
<path fill-rule="evenodd" clip-rule="evenodd" d="M138.663 96.2557C137.024 96.8849 131.832 104.325 128.28 111.148C124.728 117.971 121.119 123.762 120.861 126.566C120.603 129.37 123.506 139.086 124.796 144.318C125.755 148.51 126.964 152.574 128.408 156.464C128.989 157.49 137.117 160.013 140.407 161.321C143.697 162.629 151.18 164.871 152.341 164.499C153.502 164.127 164.604 147.177 170.213 136.066C174.433 127.794 178.286 119.144 181.751 110.166C182.203 108.765 182.207 106.209 179.821 105.639C177.434 105.069 166.595 103.086 158.018 101.155C149.99 99.3386 140.47 95.5631 138.663 96.2557Z" fill="#F8E9D0"/>
<path fill-rule="evenodd" clip-rule="evenodd" d="M180.858 106.102C180.53 105.872 180.18 105.716 179.819 105.639C177.432 105.079 166.594 103.086 158.015 101.155C149.987 99.3485 140.468 95.5631 138.662 96.2576C137.023 96.8869 131.824 104.327 128.278 111.15C125.372 116.738 122.427 121.637 121.311 124.762C123.348 123.828 131.116 121.843 147.155 117.531C150.141 116.728 153.733 115.709 156.683 114.959C164.87 112.801 172.947 109.842 180.858 106.102L180.858 106.102Z" fill="#FCF1E0"/>
<path fill-rule="evenodd" clip-rule="evenodd" d="M180.857 106.102C182.573 109.268 179.347 112.45 175.858 116.787C172.368 121.125 164.381 129.493 149.592 136.062C134.281 142.861 130.941 142.861 124.794 144.316C125.754 148.508 126.962 152.572 128.406 156.461C128.987 157.488 137.115 160.011 140.405 161.319C143.695 162.627 151.178 164.869 152.339 164.497C153.5 164.125 164.603 147.175 170.211 136.064C174.431 127.792 178.285 119.142 181.751 110.164C182.017 109.457 182.072 108.624 181.903 107.857C181.734 107.09 181.357 106.456 180.857 106.102V106.102Z" fill="#F5DFCE"/>
<path fill-rule="evenodd" clip-rule="evenodd" d="M176.671 106.496C176.671 106.496 165.216 105.52 156.672 103.391C148.877 101.45 138.27 98.2661 136.198 98.6737C133.98 101.541 131.916 104.65 130.024 107.974C130.825 107.218 134.568 107.097 145.27 107.974C154.263 108.72 171.579 108.508 176.671 106.496Z" fill="#FFF8ED"/>
<path fill-rule="evenodd" clip-rule="evenodd" d="M180.616 113.13C175.47 125.431 158.822 149.174 140.405 161.321C143.695 162.629 151.178 164.871 152.34 164.499C153.501 164.127 164.603 147.177 170.212 136.066C175.048 126.485 178.819 117.632 180.617 113.13H180.616Z" fill="#EDC1AD"/>
<path fill-rule="evenodd" clip-rule="evenodd" d="M179.822 105.639C177.622 105.123 168.248 103.389 160.078 101.61C160.078 101.61 154.521 108.776 157.601 121.628C160.68 134.48 170.213 136.073 170.213 136.073C174.433 127.801 178.287 119.15 181.752 110.173C182.202 108.766 182.207 106.201 179.822 105.639Z" fill="#194A72"/>
<path fill-rule="evenodd" clip-rule="evenodd" d="M179.5 105.568L179.295 105.522L179.18 105.497L178.975 105.453L178.811 105.42L178.609 105.378L178.425 105.34L178.201 105.295L178.008 105.255L177.742 105.202L177.568 105.166L177.242 105.101L177.085 105.069C173.158 104.278 166.274 102.962 160.079 101.612C157.698 105.165 156.465 110.011 156.687 114.951C169.666 111.621 182.315 107.092 179.823 105.639L179.582 105.584L179.5 105.568Z" fill="#29688C"/>
<path fill-rule="evenodd" clip-rule="evenodd" d="M181.845 109.822C181.858 109.763 181.872 109.704 181.884 109.642C181.897 109.581 181.898 109.565 181.906 109.525C181.914 109.486 181.924 109.415 181.932 109.357C181.941 109.3 181.945 109.268 181.95 109.223C181.955 109.177 181.959 109.118 181.965 109.064C181.97 109.011 181.973 108.963 181.976 108.912C181.979 108.861 181.976 108.833 181.976 108.791C181.981 108.666 181.981 108.541 181.976 108.415C181.976 108.388 181.976 108.36 181.976 108.332C181.976 108.261 181.964 108.19 181.954 108.118C181.954 108.089 181.947 108.061 181.943 108.031C181.932 107.958 181.92 107.885 181.905 107.814C181.905 107.79 181.895 107.766 181.89 107.743C181.872 107.663 181.853 107.586 181.83 107.509V107.491C181.745 107.214 181.627 106.96 181.482 106.741C181.433 106.672 181.382 106.605 181.328 106.543L181.294 106.502C181.239 106.438 181.182 106.378 181.122 106.322L181.08 106.284C181.016 106.227 180.943 106.169 180.875 106.116C182.589 109.282 179.365 112.464 175.876 116.801C173.623 119.603 168.246 124.228 161.312 129.917C163.785 133.231 166.894 135.38 170.229 136.076C174.445 127.799 178.295 119.143 181.756 110.161C181.782 110.081 181.807 109.994 181.828 109.907C181.831 109.884 181.838 109.852 181.845 109.822Z" fill="#123668"/>
<path fill-rule="evenodd" clip-rule="evenodd" d="M157.284 108.37C165.163 108.334 173.414 107.776 176.669 106.498C176.669 106.498 166.985 105.673 158.782 103.884C158.139 105.27 157.635 106.78 157.284 108.37V108.37Z" fill="#3C8DAA"/>
<path fill-rule="evenodd" clip-rule="evenodd" d="M171.207 134.072C171.457 133.568 171.703 133.067 171.946 132.568L171.979 132.501C172.232 131.981 172.481 131.465 172.726 130.954L172.912 130.558C173.137 130.09 173.359 129.625 173.578 129.163L173.636 129.038C173.871 128.541 174.102 128.049 174.328 127.562L174.5 127.192C174.701 126.758 174.899 126.329 175.094 125.906L175.172 125.738C175.389 125.265 175.601 124.8 175.807 124.343L175.955 124.016L176.501 122.809L176.575 122.645C176.773 122.2 176.965 121.765 177.153 121.339L177.276 121.058C177.441 120.682 177.602 120.312 177.761 119.948L177.831 119.787C178.013 119.375 178.186 118.972 178.351 118.58L178.436 118.383C178.588 118.026 178.736 117.679 178.88 117.34L178.93 117.221C179.089 116.845 179.241 116.482 179.388 116.131L179.437 116.014L179.847 115.038L179.866 114.991L180.261 114.027L180.275 113.992C180.399 113.687 180.517 113.398 180.626 113.121C176.852 121.223 172.361 128.574 167.267 134.984C168.225 135.479 169.214 135.839 170.22 136.057C170.494 135.523 170.76 134.991 171.018 134.462L171.207 134.072Z" fill="#0E2D54"/>
<path fill-rule="evenodd" clip-rule="evenodd" d="M45.17 117.531C44.8968 120.381 45.7944 125.193 50.7224 127.801C55.6504 130.409 62.8111 128.312 63.5816 128.312C64.3522 128.312 65.2103 129.056 64.6951 133.152C64.4449 136.395 64.5611 139.676 65.0393 142.866C64.1941 143.678 63.9007 145.277 64.3562 146.59C65.0393 149.162 63.673 151.634 63.673 154.37C63.673 157.107 62.5596 164.66 67.3619 165.414C72.1641 166.168 84.0725 158.809 83.9017 156.654C83.731 154.499 80.2688 153.213 78.3575 149.134C76.4462 145.056 77.0855 120.001 69.7405 119.617C62.3955 119.233 45.17 117.531 45.17 117.531Z" fill="url(#paint0_linear_733_1991)"/>
<path fill-rule="evenodd" clip-rule="evenodd" d="M49.483 52.2479C46.6528 51.3037 43.6929 52.6807 41.7718 55.8354C38.8727 60.2342 36.4749 67.0589 38.859 69.7342C41.2431 72.4095 49.483 52.2479 49.483 52.2479Z" fill="#28BBE2"/>
<g style="mix-blend-mode:multiply" opacity="0.2">
<path fill-rule="evenodd" clip-rule="evenodd" d="M49.4856 52.2478C46.6848 53.9947 44.2327 56.7344 42.3551 60.2143C40.1336 64.2233 38.7905 64.2886 38.7591 62.0269C37.7181 65.1395 37.4557 68.161 38.8602 69.744C41.243 72.4094 49.4856 52.2478 49.4856 52.2478Z" fill="#242357"/>
</g>
<path fill-rule="evenodd" clip-rule="evenodd" d="M35.9588 77.515C34.792 77.2597 32.4065 78.1561 31.1045 82.4738C29.8024 86.7914 28.8625 96.9524 30.7424 100.514C31.6776 102.548 33.3559 103.587 35.0173 103.16L35.9588 77.515Z" fill="#28BBE2"/>
<g style="mix-blend-mode:multiply" opacity="0.2">
<path fill-rule="evenodd" clip-rule="evenodd" d="M32.3588 90.3709C31.8683 95.2407 30.1468 95.2585 29.6863 93.9129C29.5756 96.2164 29.943 98.5152 30.741 100.514C31.6763 102.548 33.3546 103.587 35.0161 103.16L35.9587 77.5149C35.9587 77.5149 33.3096 80.9421 32.3588 90.3709Z" fill="#242357"/>
</g>
<path fill-rule="evenodd" clip-rule="evenodd" d="M66.2687 51.1359C64.0117 49.2937 56.8525 47.7483 51.2836 50.8768C45.7147 54.0052 37.4707 69.9976 34.3598 83.2295C31.2489 96.4615 33.8816 108.473 43.8471 110.141C53.8125 111.809 58.958 109.826 61.3761 108.15C63.7942 106.474 67.654 94.3918 69.3632 80.9065C71.0723 67.4212 66.2687 51.1359 66.2687 51.1359Z" fill="#28BBE2"/>
<g style="mix-blend-mode:multiply" opacity="0.2">
<path fill-rule="evenodd" clip-rule="evenodd" d="M66.2685 51.1361C62.9532 50.1158 59.51 50.3959 56.2947 51.9474C51.9418 53.9262 44.7007 61.5345 40.8014 72.113C36.9021 82.6914 41.1716 103.467 40.8014 104.976C40.509 106.164 37.4389 105.768 34.9551 103.029C37.0035 107.252 40.2775 109.879 43.8358 110.153C53.8027 111.829 58.9467 109.838 61.3648 108.162C63.7829 106.486 67.6427 94.4038 69.3505 80.9185C71.0584 67.4332 66.2685 51.1361 66.2685 51.1361Z" fill="#242357"/>
</g>
<path opacity="0.2" fill-rule="evenodd" clip-rule="evenodd" d="M33.8258 78.6327C32.1277 80.3805 30.9932 83.0535 30.6834 86.0373C30.1847 89.6901 31.3433 89.138 31.6849 87.4897C32.0264 85.8414 32.4923 82.054 33.7861 79.9348C34.8342 78.2073 34.3382 78.2073 33.8258 78.6327Z" fill="#F5FFFE"/>
<path opacity="0.2" fill-rule="evenodd" clip-rule="evenodd" d="M45.6122 52.8753C43.8168 53.6957 42.2764 55.4003 41.2579 57.6936C40.4861 59.6921 41.3345 60.1888 42.1855 58.8492C43.0366 57.5095 44.6857 54.4721 46.3459 53.5777C48.006 52.6833 47.081 52.25 45.6122 52.8753Z" fill="#F5FFFE"/>
<path opacity="0.2" fill-rule="evenodd" clip-rule="evenodd" d="M56.7879 49.8715C57.1978 49.9467 55.7208 50.5443 53.4706 52.2461C50.8021 54.5283 48.318 57.2348 46.0641 60.3154C44.5968 62.3635 43.6855 60.5134 47.5411 55.3329C50.4784 51.3972 54.8245 49.5114 56.7879 49.8715Z" fill="#F5FFFE"/>
<path fill-rule="evenodd" clip-rule="evenodd" d="M79.8299 64.6428C80.3955 66.1962 82.5775 76.1513 80.6196 81.6048C78.6618 87.0583 76.5469 83.4965 76.5469 83.4965L78.4528 65.2365L79.8299 64.6428Z" fill="#007CB6"/>
<path fill-rule="evenodd" clip-rule="evenodd" d="M79.7041 68.2444C79.6352 67.1075 79.4828 65.9845 79.2491 64.8944L78.4567 65.2348L76.5508 83.4948C76.9164 84.0731 77.4014 84.4647 77.9334 84.6108C77.7516 84.124 77.63 83.8529 77.63 83.8529C79.4516 79.1029 80.1782 73.6344 79.7041 68.2444Z" fill="#00629E"/>
<path fill-rule="evenodd" clip-rule="evenodd" d="M80.9908 80.3288C79.8837 79.249 78.4351 79.249 77.3278 80.3288C76.2744 81.5161 75.9766 85.4736 75.9766 85.4736L76.9931 94.8628C77.5703 95.5513 78.2544 96.0266 78.9864 96.2479C79.7475 96.3123 80.4865 95.8647 80.9893 95.0349C81.4142 94.5145 82.3706 94.5145 82.7285 93.1294C82.9104 91.7634 83.1911 90.429 83.566 89.1482C84.0442 88.1964 85.5239 86.6371 84.8736 84.1261C84.21 82.4161 84.0148 80.4072 84.3271 78.4985C84.6728 76.7829 85.2425 75.3126 84.6112 74.2006C83.8257 72.8155 82.1998 73.9097 81.4156 75.7282C81.4453 77.2848 81.3018 78.8382 80.9908 80.3288Z" fill="#F8C6A3"/>
<path fill-rule="evenodd" clip-rule="evenodd" d="M81.5887 86.265C81.5763 85.6714 79.9929 85.0125 78.8822 83.4137C78.4013 82.7554 78.2818 81.714 78.5896 80.8658C78.8977 80.0176 79.5578 79.57 80.2047 79.7707C79.2421 79.2778 78.1745 79.4854 77.3356 80.3287C76.2822 81.516 75.9844 85.4735 75.9844 85.4735L77.0009 94.8628C77.5783 95.5511 78.2623 96.0264 78.9942 96.2479C79.4968 96.3377 80.0043 96.1474 80.4137 95.7156C79.9971 95.968 79.5154 95.7914 79.2319 95.2823C78.6854 94.4017 79.4245 92.5278 79.7893 91.305C80.154 90.0821 78.0991 89.1283 79.1335 86.4926C79.6362 85.1827 81.6008 86.8626 81.5887 86.265Z" fill="#F2A37C"/>
<path fill-rule="evenodd" clip-rule="evenodd" d="M83.6077 73.5734C82.691 73.7692 81.8863 74.5596 81.4215 75.7203C81.4502 77.2808 81.3049 78.8376 80.9912 80.3309C80.9914 80.3309 82.1076 81.3737 82.9042 82.185C82.6115 81.5489 82.4057 80.8376 82.2976 80.0894C81.9575 78.5245 81.9854 76.8404 82.3768 75.3008C82.6205 74.5194 83.0606 73.9017 83.6077 73.5734V73.5734Z" fill="#F2A37C"/>
<path opacity="0.3" fill-rule="evenodd" clip-rule="evenodd" d="M83.9714 78.0294C83.5777 79.8425 83.7239 81.7873 84.3796 83.4612C84.9722 85.2767 84.7158 87.3842 83.7228 88.8592H83.7227C84.8312 87.7647 85.3282 85.8852 84.9783 84.1102C84.2543 82.4005 84.0416 80.3913 84.3823 78.4826C84.7594 76.767 85.3805 75.2968 84.6923 74.1847C84.9291 74.7447 84.6341 76.0665 83.9714 78.0294Z" fill="white"/>
<path fill-rule="evenodd" clip-rule="evenodd" d="M74.9342 60.3095C74.9342 60.3095 78.1039 59.2924 78.6778 67.6606C79.1526 73.0504 78.4264 78.5189 76.605 83.2691C78.5098 87.8815 79.0515 93.4106 78.108 98.6085C77.0068 104.09 58.2973 109.397 43.8477 104.79C43.8477 104.79 44.3313 86.0651 48.9643 73.2486C51.6901 65.6388 56.0458 59.5138 61.3782 55.7919L66.2693 55.3348C67.467 57.5775 68.9647 59.4471 70.6728 60.8318C72.0791 61.5525 73.6315 61.3622 74.9342 60.3095Z" fill="#EFF8FC"/>
<path fill-rule="evenodd" clip-rule="evenodd" d="M59.5004 106.282L66.1186 98.6106C66.1186 98.6106 58.1615 101.102 53.5654 99.8157C48.9693 98.5294 47.8804 91.8234 49.4858 88.8612L48.2876 84.9037L45.8857 85.3252C44.7803 91.7028 44.0981 98.2188 43.8486 104.784C48.992 106.342 54.2607 106.846 59.5006 106.282H59.5004Z" fill="#CCE4EA"/>
<path fill-rule="evenodd" clip-rule="evenodd" d="M69.7305 80.2298C69.7305 80.2298 74.72 80.4653 76.6041 83.2712C76.8786 82.7092 77.0996 82.0962 77.2612 81.4488C75.0476 79.2524 72.2243 78.7955 69.7305 80.2298Z" fill="#CCE4EA"/>
<path fill-rule="evenodd" clip-rule="evenodd" d="M50.6697 87.009C52.7191 87.755 55.4011 91.6096 60.8183 92.1221C64.6477 92.856 68.4945 90.9659 71.225 87.009C68.1644 88.755 64.7756 88.8721 61.6612 87.3394C55.7725 84.399 54.0921 77.1112 48.0586 76.9133C47.9631 76.9133 47.8715 76.9133 47.7771 76.9232C45.9786 83.7194 44.7924 90.8231 44.248 98.0585L50.6697 87.009Z" fill="#CCE4EA"/>
<path fill-rule="evenodd" clip-rule="evenodd" d="M72.0725 69.9797C72.0725 69.9797 71.9714 76.2762 68.4766 78.0293C68.4766 78.0293 73.6411 77.9482 73.79 73.5653C73.9389 69.1823 72.0725 69.9797 72.0725 69.9797Z" fill="#A9CBD3"/>
<path fill-rule="evenodd" clip-rule="evenodd" d="M69.7305 63.2498C69.7305 63.2498 69.8767 69.4908 72.4725 70.5198C75.16 71.5824 72.9698 63.3487 72.6091 63.2795C72.2483 63.2102 69.7305 63.2498 69.7305 63.2498Z" fill="#A9CBD3"/>
<path fill-rule="evenodd" clip-rule="evenodd" d="M71.9284 62.0154C70.7292 62.9896 69.9447 64.7656 69.8366 66.7506C69.7232 68.294 69.7356 68.5968 69.469 68.5117C68.5401 68.322 67.6778 67.7045 67.0097 66.7505C65.78 65.1458 68.6944 58.8494 68.6944 58.8494H69.2312C70.2774 58.8495 71.2262 59.7387 71.6549 61.121L71.9284 62.0154Z" fill="#A9CBD3"/>
<path fill-rule="evenodd" clip-rule="evenodd" d="M76.2988 63.7447C76.8037 65.0263 77.0547 66.4846 77.0243 67.9595C77.079 68.4799 78.8579 66.6673 78.9876 65.6839C78.827 63.8903 78.5183 62.1311 78.0682 60.4441L76.2988 63.7447Z" fill="#A9CBD3"/>
<path fill-rule="evenodd" clip-rule="evenodd" d="M62.2486 56.9L65.7039 56.5775C66.8082 60.6672 66.8082 65.2093 65.7039 69.299C63.8677 76.3513 60.1965 79.6954 56.0322 79.0602L62.2486 56.9Z" fill="#CCE4EA"/>
<path fill-rule="evenodd" clip-rule="evenodd" d="M61.3756 55.7938L64.8309 55.4713C65.9345 59.5605 65.9345 64.1016 64.8309 68.1908C62.9933 75.2431 59.3222 78.5872 55.1592 77.9521L61.3756 55.7938Z" fill="#007CB6"/>
<path fill-rule="evenodd" clip-rule="evenodd" d="M55.1592 77.9523C55.7951 78.0495 56.4362 78.0495 57.072 77.9523C59.0021 74.867 60.7631 71.5682 62.3389 68.086C63.7727 64.5187 63.9968 60.1954 62.9466 56.358C62.8234 56.0944 62.6651 55.869 62.481 55.6951L61.3757 55.798L55.1592 77.9523Z" fill="#00629E"/>
<path fill-rule="evenodd" clip-rule="evenodd" d="M54.5071 75.6904C54.5071 75.6904 37.5068 106.274 36.2389 108.386C34.9711 110.497 34.7169 112.61 31.8013 112.517C29.2696 112.532 26.7515 113.058 24.3197 114.078C21.9111 114.906 20.1991 114.629 20.389 112.608C20.579 110.588 23.3689 108.017 23.3689 108.017L17.4092 104.895C18.0958 103.623 19.1474 102.879 20.2619 102.875C22.2266 102.782 25.4538 104.062 26.4101 104.062C27.3664 104.062 28.249 103.144 30.0239 99.6532C31.7988 96.1627 45.3656 69.7205 45.3656 69.7205L54.5071 75.6904Z" fill="#F8C6A3"/>
<path fill-rule="evenodd" clip-rule="evenodd" d="M43.4273 73.5157L39.2888 81.5832C40.1286 83.2505 41.1824 84.6674 42.3929 85.7564C43.5612 85.7131 44.7269 85.5704 45.8836 85.3289C45.8838 85.3289 35.1287 106.037 33.7583 108.318C32.3878 110.6 29.7961 109.794 27.4298 110.78C25.0635 111.765 22.1314 114.923 20.4688 113.538C20.8445 114.694 22.3474 114.757 24.3202 114.08C26.7517 113.06 29.2692 112.534 31.8006 112.519C34.7174 112.61 34.9716 110.499 36.2394 108.387C37.1957 106.789 47.1695 88.8887 51.9596 80.2732L43.4273 73.5157Z" fill="#F2A37C"/>
<path fill-rule="evenodd" clip-rule="evenodd" d="M25.0268 106.735C25.0268 106.735 19.1697 104.691 18.6655 104.414C18.2242 104.173 18.6478 103.399 18.981 103.243C18.3578 103.566 17.8126 104.143 17.4111 104.905L23.3708 108.028C23.907 107.556 24.4597 107.125 25.0266 106.735L25.0268 106.735Z" fill="#F2A37C"/>
<path opacity="0.3" fill-rule="evenodd" clip-rule="evenodd" d="M30.0258 99.6691C28.2496 103.16 27.363 104.078 26.412 104.078C25.461 104.078 22.2272 102.792 20.2638 102.891C20.1171 102.898 19.9706 102.918 19.8252 102.948C21.6811 103.194 23.5089 103.771 25.267 104.665C26.5187 105.456 27.9817 104.865 28.7701 103.251C30.0982 101.048 38.9979 82.1689 39.0007 82.163C35.2108 89.5398 30.9657 97.8229 30.0258 99.6691Z" fill="white"/>
<path fill-rule="evenodd" clip-rule="evenodd" d="M61.3746 55.7939C60.3117 53.3521 55.1254 53.4946 50.9664 58.6315C46.2363 64.4728 41.7715 71.1531 41.7715 71.1531C41.7715 71.1531 42.3877 74.4181 45.8579 78.8406C47.6254 81.1983 49.9462 82.493 52.349 82.4617C52.349 82.4617 58.6993 72.6451 60.7665 67.5221C62.2007 63.9547 62.4248 59.6314 61.3746 55.7939Z" fill="#DEF1F8"/>
<path fill-rule="evenodd" clip-rule="evenodd" d="M45.8602 78.8405C47.6272 81.1979 49.9474 82.4926 52.3499 82.4617C52.3499 82.4617 58.7002 72.645 60.7674 67.52C61.4762 65.7745 61.897 63.8153 61.9971 61.7955V61.7539C60.3029 67.4053 52.1969 80.4611 41.7764 71.153C41.7722 71.153 42.3885 74.418 45.8602 78.8405Z" fill="#CCE4EA"/>
<path fill-rule="evenodd" clip-rule="evenodd" d="M59.5057 55.3745C56.9128 55.1829 54.3505 56.2566 52.2289 58.4238C50.2493 60.456 48.7778 62.8206 52.2289 63.1431C55.1364 63.0517 57.9114 61.3649 59.9934 58.4238C60.8187 57.1277 61.3433 55.5961 59.5057 55.3745Z" fill="#E9F6FB"/>
<path fill-rule="evenodd" clip-rule="evenodd" d="M57.9489 56.0452C56.3323 56.1543 54.7886 57.0502 53.5673 58.5879C52.7476 59.8167 57.5363 58.9381 59.0323 58.0121C60.8646 56.8723 60.2512 55.6751 57.9489 56.0452Z" fill="#EFF8FC"/>
<path fill-rule="evenodd" clip-rule="evenodd" d="M76.7728 55.8436C77.7678 55.7348 78.7434 56.2815 79.4289 57.3316C80.3402 59.5489 80.4915 62.2521 79.8387 64.653C79.0653 68.199 77.9943 68.2544 77.7701 68.1891C77.546 68.1238 77.7946 64.56 76.9299 63.2897C76.0651 62.0193 74.9365 60.3215 74.9365 60.3215C74.9365 60.3215 75.7808 56.6232 76.7728 55.8436Z" fill="#DEF1F8"/>
<path fill-rule="evenodd" clip-rule="evenodd" d="M79.781 58.2396C79.6856 57.9175 79.5673 57.6104 79.4284 57.3234C78.7429 56.2733 77.7673 55.7267 76.7724 55.8354C75.7806 56.615 74.9307 60.3034 74.9307 60.3034C74.9307 60.3034 76.0606 62.0032 76.924 63.2716C77.3681 64.1956 77.6038 65.296 77.599 66.4218C77.7124 64.4054 77.5151 62.3778 77.0211 60.4855C76.8219 59.4428 77.1672 58.3432 77.8408 57.8755C78.4891 57.5222 79.2162 57.6587 79.781 58.2396Z" fill="#CCE4EA"/>
<path fill-rule="evenodd" clip-rule="evenodd" d="M79.1121 59.2074C78.3402 58.5465 78.019 60.365 78.2924 62.3596C78.4411 63.8806 78.4265 65.4259 78.2487 66.9404C78.2255 67.4925 78.9208 66.7425 79.4168 64.6569C79.9128 62.5713 80.0494 60.0108 79.1121 59.2074Z" fill="#E9F6FB"/>
<path fill-rule="evenodd" clip-rule="evenodd" d="M69.7239 50.0199C68.6772 51.9289 67.5212 53.7068 66.2686 55.3349C66.2686 55.3349 68.3658 62.033 72.6052 63.2777C74.4154 61.4867 75.8622 59.0272 76.7955 56.1541C76.1424 54.0415 74.9753 52.3511 73.5166 51.4051C70.7539 49.1948 69.7239 50.0199 69.7239 50.0199Z" fill="#F8C6A3"/>
<path fill-rule="evenodd" clip-rule="evenodd" d="M73.5194 51.421C70.754 49.1969 69.724 50.022 69.724 50.022C69.724 50.022 69.5601 50.3465 69.1871 50.9797L68.9521 51.3755C69.6098 53.6935 70.8226 55.5903 72.3678 56.7182C73.46 57.6294 74.6585 58.243 75.9037 58.5287C76.2556 57.7898 76.5545 57.0008 76.7958 56.174C76.144 54.0605 74.9777 52.3686 73.5196 51.421H73.5194Z" fill="#F2A37C"/>
<path fill-rule="evenodd" clip-rule="evenodd" d="M73.5192 51.421C70.7538 49.1969 69.7237 50.022 69.7237 50.022C69.7237 50.022 69.6227 50.2199 69.4219 50.5741C71.4384 53.4676 74.009 55.4159 76.7999 56.1661C76.1461 54.0544 74.9783 52.3652 73.5193 51.421L73.5192 51.421Z" fill="#DD8964"/>
<path fill-rule="evenodd" clip-rule="evenodd" d="M72.4698 70.52C72.6116 73.9763 70.81 76.9565 68.4257 77.2102C64.8201 77.6356 62.3186 77.044 56.7988 70.52C51.2791 63.996 48.41 60.7805 43.333 62.0113C41.6402 62.6049 35.9007 70.1717 35.8268 72.0911C35.7529 74.0105 42.3029 82.6419 42.9641 83.3879C43.6254 84.1339 47.4645 82.6913 51.4514 85.1153C54.9121 87.2188 58.2006 92.1261 65.8148 90.4204C73.4289 88.7147 76.8719 77.2537 75.7762 70.516C75.7775 70.52 74.821 68.8341 72.4698 70.52Z" fill="#EA4D5F"/>
<path fill-rule="evenodd" clip-rule="evenodd" d="M53.5637 66.7899C52.5228 65.6137 51.4189 64.5591 50.2628 63.6357C46.8424 69.1135 42.6776 73.5086 38.0293 76.5452C39.4352 78.7219 41.1718 81.0845 42.1841 82.4043C46.6933 78.4167 50.571 73.096 53.5637 66.7899V66.7899Z" fill="#EFF8FC"/>
<path fill-rule="evenodd" clip-rule="evenodd" d="M58.6436 89.965C60.1584 90.5726 61.7288 90.8396 63.2997 90.7565C64.1646 86.1919 64.3713 81.4182 63.9063 76.733C63.0856 76.3736 62.293 75.8915 61.5414 75.2944C61.3712 80.4433 60.3792 85.465 58.6436 89.9651V89.965Z" fill="#EFF8FC"/>
<path fill-rule="evenodd" clip-rule="evenodd" d="M69.2235 88.8571C70.2548 88.1078 71.203 87.1394 72.0365 85.984C71.5379 82.7464 70.5804 79.694 69.2248 77.0201C68.9628 77.111 68.6966 77.1732 68.4283 77.2062C67.838 77.2754 67.2807 77.313 66.7314 77.3071C68.4146 80.6568 69.2902 84.7154 69.2235 88.8571Z" fill="#EFF8FC"/>
<path fill-rule="evenodd" clip-rule="evenodd" d="M53.993 86.9991C56.2462 82.7721 57.874 77.9183 58.7749 72.7402C58.1587 72.0892 57.5029 71.355 56.7966 70.52L56.0943 69.6929C54.4803 75.178 52.0517 80.0808 48.9814 84.0527C49.8274 84.284 50.6542 84.6415 51.4491 85.1194C52.3192 85.6808 53.1684 86.3083 53.993 86.9992V86.9991Z" fill="#EFF8FC"/>
<path fill-rule="evenodd" clip-rule="evenodd" d="M72.2082 72.827C72.0072 73.8955 71.6134 74.8674 71.0674 75.6428C72.5657 76.7067 73.8639 78.2806 74.8506 80.2296C75.2244 79.0468 75.5121 77.8106 75.7085 76.5412C74.7224 74.9807 73.5327 73.7184 72.2082 72.827Z" fill="#EFF8FC"/>
<g style="mix-blend-mode:multiply" opacity="0.2">
<path fill-rule="evenodd" clip-rule="evenodd" d="M72.4741 70.518C72.4518 72.2517 72.0415 73.928 71.3047 75.2948C72.071 74.2778 72.6166 72.9598 72.8746 71.5015C72.8746 71.5014 75.1521 72.5522 75.7806 70.5121L74.1083 69.7878C73.537 69.8826 72.983 70.1302 72.4741 70.518V70.518Z" fill="#242357"/>
</g>
<path fill-rule="evenodd" clip-rule="evenodd" d="M72.4652 60.6695C73.1757 60.2401 75.1472 59.7256 76.094 61.1543C77.0653 62.6832 77.3322 64.8918 76.7771 66.8076C76.5551 68.1012 76.2206 69.3486 75.7811 70.5198C74.7596 71.3835 73.4961 71.3835 72.4745 70.5198C71.0684 68.7062 70.2637 66.1094 70.2627 63.3824C70.8097 62.2008 71.5721 61.2618 72.4652 60.6695Z" fill="#EA4D5F"/>
<path fill-rule="evenodd" clip-rule="evenodd" d="M75.9926 69.926C74.613 67.2286 72.6013 65.3529 70.335 64.6506C70.4152 65.4649 70.5629 66.2622 70.7749 67.0252C72.3076 67.9265 73.6849 69.3045 74.8095 71.0618C75.1529 70.9701 75.4814 70.7862 75.7781 70.5196C75.7781 70.5196 75.8642 70.3178 75.9926 69.926Z" fill="#EFF8FC"/>
<path fill-rule="evenodd" clip-rule="evenodd" d="M73.0181 60.4221C72.8317 60.4836 72.6491 60.5663 72.4716 60.6694C72.009 60.9911 71.5765 61.3967 71.1846 61.8765C73.3609 62.6077 75.3217 64.3179 76.786 66.7621C76.9797 65.8507 77.0555 64.8955 77.0102 63.9443C75.8968 62.3182 74.5265 61.1092 73.0181 60.4221Z" fill="#EFF8FC"/>
<g style="mix-blend-mode:multiply" opacity="0.2">
<path fill-rule="evenodd" clip-rule="evenodd" d="M71.9308 66.7504C71.5661 63.6991 72.3189 60.9032 73.36 60.3214C73.0546 60.3907 72.7556 60.5075 72.4677 60.6697C71.5738 61.2614 70.8104 62.2005 70.2627 63.3826C70.2639 66.1105 71.0687 68.7071 72.4752 70.5205C72.9749 70.9084 73.5297 71.1242 74.0963 71.1512C72.8433 70.4221 71.9979 68.7037 71.9308 66.7504Z" fill="#242357"/>
</g>
<g style="mix-blend-mode:multiply" opacity="0.2">
<path fill-rule="evenodd" clip-rule="evenodd" d="M65.2841 88.3763C58.6441 88.1665 56.5797 84.7472 51.4276 81.4249C48.9327 79.8161 44.8531 80.1941 43.8463 79.5272C41.4688 77.2535 39.2697 74.6107 37.2882 71.6458C37.0081 70.4585 40.4975 64.6429 40.4975 64.6429C38.3252 67.1975 35.8727 70.8444 35.8248 72.095C35.7511 74.0124 42.3009 82.6458 42.9622 83.3918C43.6235 84.1377 47.4626 82.6952 51.4494 85.1192C54.9101 87.2227 58.1987 92.13 65.8128 90.4243C68.9875 89.7118 71.8174 87.1301 73.632 83.2909C71.6274 86.9314 68.4828 88.8471 65.2841 88.3763Z" fill="#242357"/>
</g>
<path opacity="0.15" fill-rule="evenodd" clip-rule="evenodd" d="M48.2793 63.4832C46.8429 62.8506 45.3315 62.6545 43.8403 62.9074C42.5081 63.8038 41.3545 65.1749 40.4876 66.8926C38.8685 69.7777 42.888 66.7264 48.5307 70.1339C54.1733 73.5413 61.4377 79.0561 62.8859 78.3774C64.334 77.6987 60.1055 75.4646 56.7896 71.5922C54.0271 68.3668 50.6414 64.5221 48.2793 63.4832Z" fill="white"/>
<path opacity="0.15" fill-rule="evenodd" clip-rule="evenodd" d="M75.7776 61.4728C74.8117 60.5547 74.4114 63.0262 74.503 65.6836C74.5945 68.3411 74.8132 70.4327 75.3405 70.0983C76.2024 68.5573 76.6693 66.6318 76.6617 64.6488C76.5987 62.8184 76.2613 61.9339 75.7776 61.4728Z" fill="white"/>
<path fill-rule="evenodd" clip-rule="evenodd" d="M68.7997 51.6209C68.241 50.972 67.5122 50.7161 66.8103 50.9224C64.7885 51.9964 62.9389 53.6553 61.374 55.7981C61.1145 56.548 61.1882 59.7833 63.877 64.2969C65.1994 66.2755 66.8255 67.7745 68.6232 68.6719C69.3134 68.9846 68.9103 63.07 72.464 60.6737C72.464 60.6737 72.654 59.5577 70.938 58.4971C69.3774 57.526 68.224 55.5461 67.8259 53.1544L68.7997 51.6209Z" fill="#DEF1F8"/>
<path fill-rule="evenodd" clip-rule="evenodd" d="M67.8242 53.1386L68.7997 51.6209C68.241 50.972 67.5122 50.7161 66.8103 50.9224C64.7885 51.9964 62.9389 53.6553 61.374 55.7981C61.1145 56.548 61.1882 59.7833 63.877 64.2969C62.3742 61.1961 62.575 56.6588 63.7581 55.341C64.9412 54.0231 66.6724 52.0048 67.2653 54.1992C67.8582 56.3937 70.2589 57.9589 70.2589 57.9589C69.011 56.9263 68.1257 55.1735 67.8242 53.1386Z" fill="#CCE4EA"/>
<path fill-rule="evenodd" clip-rule="evenodd" d="M70.4593 59.5656C71.0756 59.0649 72.5361 59.6784 71.4622 60.7073C70.158 62.376 69.191 64.5262 68.6643 66.9285C68.4757 67.72 67.205 67.0215 66.1844 66.0915C65.3068 65.4565 64.593 64.4308 64.1474 63.1649C64.0532 62.7316 66.3102 64.8884 67.6286 63.2797C68.947 61.6709 69.2202 60.5708 70.4593 59.5656Z" fill="#E9F6FB"/>
<path fill-rule="evenodd" clip-rule="evenodd" d="M61.5516 40.6801C61.0469 43.0234 61.4298 45.5785 62.5599 47.4078C63.1993 48.3339 64.5096 48.9176 64.9467 46.9211C65.4435 48.5312 66.4257 49.7192 67.6082 50.1405C68.604 50.6778 69.7224 50.1001 70.2586 48.7712L67.0643 41.6635L61.5516 40.6801Z" fill="#D65132"/>
<path fill-rule="evenodd" clip-rule="evenodd" d="M61.5527 40.6801C61.3986 41.609 61.3466 42.5672 61.3983 43.5196C62.5996 45.1219 64.3614 45.4753 65.8181 44.4061C66.3851 46.9465 67.7235 48.9717 69.451 49.9031C69.7923 49.6468 70.0736 49.2503 70.2599 48.7633L67.0669 41.6556L61.5527 40.6801Z" fill="#BA422B"/>
<path fill-rule="evenodd" clip-rule="evenodd" d="M83.2995 13.0585C87.6169 13.0585 92.907 17.4613 94.123 24.3375C95.339 31.2137 94.9743 36.9323 95.5822 40.8938C96.1245 43.5624 96.081 46.4091 95.4578 49.0404C95.313 49.5269 95.1469 49.9994 94.9606 50.4552C93.2963 53.9752 90.708 56.3526 87.8001 57.0326C83.8526 58.2411 79.7486 57.7872 75.9737 55.7246C71.2916 52.9069 68.1574 49.7883 66.1504 42.2136C63.9059 33.3701 66.114 23.4498 71.502 18.1696C74.9544 14.6777 79.0903 12.8858 83.2995 13.0585Z" fill="#F8C6A3"/>
<path fill-rule="evenodd" clip-rule="evenodd" d="M67.1396 34.5976C67.2312 35.7987 67.9894 36.9385 69.4622 36.1529C70.9351 35.3674 73.6676 31.7126 74.1976 22.0325L67.1396 34.5976Z" fill="#F2A37C"/>
<path fill-rule="evenodd" clip-rule="evenodd" d="M83.3034 13.0585C81.4595 12.9364 79.6141 13.2464 77.8384 13.9767C76.0814 15.5597 74.5088 16.8953 74.5088 16.8953C76.3579 22.3555 79.7313 26.4094 83.7777 28.0338C86.5798 28.9084 89.9381 28.9045 91.1828 26.4152C92.3509 24.0822 90.5625 21.678 90.5625 21.678C91.5655 22.6587 92.7246 23.2526 93.9303 23.4035C92.4164 17.0714 87.4214 13.0585 83.3034 13.0585Z" fill="#F2A37C"/>
<ellipse opacity="0.5" cx="74.8718" cy="41.6974" rx="4.77507" ry="6.91578" fill="#EE9681"/>
<path opacity="0.5" fill-rule="evenodd" clip-rule="evenodd" d="M91.1875 41.8852C91.1918 45.4569 93.0704 48.4379 95.5256 48.7693C96.0756 46.206 96.096 43.4658 95.5843 40.8859C95.3416 38.9672 95.1955 37.0256 95.147 35.0763C92.8596 35.6497 91.1887 38.5231 91.1875 41.8852Z" fill="#EE9681"/>
<path fill-rule="evenodd" clip-rule="evenodd" d="M95.4085 39.4415C94.674 40.2622 93.7731 40.7094 92.8454 40.7138C90.31 40.5588 88.3224 37.5044 88.3654 33.8297C88.3142 33.8023 88.2643 33.7692 88.2166 33.7308C88.0922 33.6259 87.9691 33.5111 87.8475 33.3983C87.8475 33.4913 87.838 33.5804 87.838 33.6734C87.838 33.7189 87.838 33.7644 87.838 33.8099C87.6649 33.7071 87.4785 33.6605 87.2915 33.6734C86.8145 33.6571 86.343 33.8244 85.9252 34.1582C85.9252 33.9959 85.9429 33.8376 85.9429 33.6734V33.6496C85.8672 33.75 85.797 33.8585 85.7324 33.9741C85.6482 34.1421 85.532 34.2707 85.3977 34.3442C85.1492 38.6973 82.5741 41.9916 79.5608 41.811C76.5476 41.6305 74.1689 38.0394 74.1698 33.6714C74.1698 33.4458 74.1808 33.2222 74.193 33.0006C74.1224 32.9531 74.0559 32.894 73.9948 32.8245L73.7065 32.5C73.6955 32.6226 73.6873 32.7473 73.6791 32.87L65.6592 31.1366L66.0786 34.4847L73.6955 34.7498C74.0697 39.0445 76.5224 42.327 79.5081 42.5291C82.4936 42.7312 85.1471 39.7944 85.7963 35.569C86.2665 35.2224 86.7867 35.042 87.3144 35.0427C87.5257 35.0361 87.7356 35.0878 87.9334 35.1951C88.3144 38.7236 90.3773 41.358 92.8421 41.4638C93.7892 41.4629 94.7144 41.0492 95.4969 40.2765L95.4085 39.4415Z" fill="#F2A37C"/>
<path fill-rule="evenodd" clip-rule="evenodd" d="M95.4103 39.4414C94.6757 40.2617 93.7749 40.7089 92.8473 40.7138C92.3249 40.712 91.8076 40.5669 91.3226 40.2863C91.2817 40.5369 91.2504 40.7906 91.2285 41.0462C91.7467 41.3258 92.2947 41.4699 92.8476 41.4716C93.7946 41.4705 94.7195 41.0568 95.5021 40.2844L95.4405 39.7264C95.4405 39.665 95.4269 39.6057 95.42 39.5443L95.4103 39.4414Z" fill="#EB7C74"/>
<path opacity="0.3" fill-rule="evenodd" clip-rule="evenodd" d="M95.2891 42.4094C95.8998 46.1252 95.0135 50.0224 92.9978 52.4853C90.0822 56.3142 84.7456 57.828 81.248 57.5233C83.4382 57.8714 85.6529 57.7044 87.8062 57.0286C90.7141 56.3486 93.3024 53.9712 94.9667 50.4512C95.1531 49.9955 95.3192 49.5229 95.464 49.0363C96.0873 46.405 96.1306 43.5584 95.5884 40.8898C95.3758 39.2825 95.2444 37.655 95.1948 36.02L95.1101 35.933C95.2412 37.0272 94.957 38.8141 95.2891 42.4094Z" fill="white"/>
<path fill-rule="evenodd" clip-rule="evenodd" d="M79.6061 42.5659C79.6279 42.3164 79.6401 42.0654 79.6428 41.814C76.9126 41.7013 74.6325 38.7661 74.2351 34.8527C74.0636 34.8862 73.8935 34.9331 73.7256 34.9932C74.1676 39.2415 76.6411 42.4268 79.6061 42.5659Z" fill="#EB7C74"/>
<path opacity="0.3" fill-rule="evenodd" clip-rule="evenodd" d="M74.2955 35.8083C74.2955 36.5998 73.6042 37.2291 72.7503 37.2291C71.8964 37.2291 71.2051 36.5919 71.2051 35.8083C71.2051 35.0247 71.8964 34.3876 72.7503 34.3876C73.6042 34.3876 74.2955 35.0168 74.2955 35.8083Z" fill="white"/>
<g style="mix-blend-mode:multiply" opacity="0.7">
<path fill-rule="evenodd" clip-rule="evenodd" d="M79.4317 40.0492C82.2918 39.929 84.5895 36.5952 84.6672 32.4527C85.0375 27.4504 82.5113 22.638 78.2759 24.4546C74.0405 26.2711 73.9476 33.5727 75.2278 36.4083C76.1208 38.5632 77.6982 39.9293 79.4317 40.0492Z" fill="url(#paint1_linear_733_1991)"/>
</g>
<g style="mix-blend-mode:multiply" opacity="0.7">
<path fill-rule="evenodd" clip-rule="evenodd" d="M94.138 24.4067C93.1549 23.9489 92.0965 23.9552 91.1158 24.4245C87.2289 26.0926 87.1441 32.7927 88.3191 35.3948C89.1383 37.374 90.5871 38.6278 92.1787 38.7349C93.31 38.7307 94.4004 38.1228 95.2418 37.0273C95.1472 32.7798 94.7776 28.5544 94.138 24.4068V24.4067Z" fill="url(#paint2_linear_733_1991)"/>
</g>
<path fill-rule="evenodd" clip-rule="evenodd" d="M65.6628 30.4499C66.453 31.5669 66.9717 33.025 67.1412 34.6053C67.3009 36.2319 69.0976 36.8809 71.5215 31.9281C73.5638 27.4865 74.6059 22.2376 74.504 16.9033C76.6996 20.2632 79.2797 23.0481 82.1305 25.1349C86.5708 28.2337 89.1913 27.4046 90.4756 26.619C91.227 26.1614 91.7862 25.2195 91.986 24.0752C92.1858 22.931 92.003 21.7173 91.4923 20.7975C93.4038 22.5487 95.6606 23.3381 97.9133 23.0434C102.139 22.8119 103.851 19.8675 102.674 17.6196C101.496 15.3717 99.2361 13.6106 95.9665 12.1839C95.9665 12.1839 99.7319 11.7308 99.5188 8.70923C99.3056 5.68765 93.98 -1.6872 83.815 0.350925C72.393 2.64035 70.6702 11.0956 70.6702 11.0956C69.1001 10.0805 67.3821 9.63825 65.6668 9.80744C63.2432 9.83514 61.6488 11.242 61.4877 12.0355C61.3265 12.829 61.6776 13.2861 62.7829 13.8995C63.6379 14.3471 64.4747 14.8657 65.2886 15.4529C63.2939 16.3699 61.4528 17.878 59.8822 19.8814C57.1497 23.2888 57.1879 26.4113 57.4749 26.8525C58.0118 27.6777 59.4178 25.7345 61.4495 25.3467C60.6473 28.0373 60.2933 30.9637 60.4166 33.889C60.788 37.8327 65.6628 30.4499 65.6628 30.4499Z" fill="#E26644"/>
<path fill-rule="evenodd" clip-rule="evenodd" d="M77.3691 11.3035C76.0658 11.63 75.1326 13.2012 76.9252 14.1292C80.5134 16.0015 83.9224 18.5283 87.0697 21.6485C89.9088 24.9827 92.1466 25.6298 91.4417 22.4242C90.4487 18.6404 88.5642 15.4865 86.1214 13.5198C83.4623 11.3636 80.3757 10.5821 77.3691 11.3035V11.3035Z" fill="#EE7249"/>
<path fill-rule="evenodd" clip-rule="evenodd" d="M88.7586 27.2544C85.7938 26.9813 80.2182 23.3305 74.7818 13.781C74.7029 13.6621 74.5815 13.6265 74.4768 13.6917C74.3722 13.7568 74.3065 13.9091 74.3118 14.0739C74.3787 14.8278 74.4553 15.8211 74.5031 16.8956C76.6988 20.2553 79.279 23.0402 82.1296 25.1273C84.152 26.7451 86.4537 27.4837 88.7586 27.2544V27.2544Z" fill="#D65132"/>
<path fill-rule="evenodd" clip-rule="evenodd" d="M77.5673 2.61255C71.7115 5.96258 70.6663 11.0876 70.6663 11.0876C69.0964 10.0725 67.3784 9.63023 65.6631 9.7994C63.2393 9.82712 61.6449 11.234 61.4837 12.0275C61.3226 12.821 61.6737 13.2781 62.779 13.8915C63.634 14.339 64.4708 14.8577 65.2847 15.4448C63.29 16.3619 61.4489 17.87 59.8783 19.8733C57.1458 23.2807 57.184 26.4032 57.471 26.8445C58.0079 27.6696 59.4138 25.7265 61.4456 25.3387C60.6435 28.0293 60.2896 30.9556 60.4129 33.881C60.7871 37.8385 65.6619 30.4518 65.6619 30.4518C66.1147 31.1127 66.4846 31.8827 66.755 32.7274C67.046 31.9556 67.2605 31.1938 67.061 30.7486C65.8689 27.7327 65.7089 24.0868 66.6281 20.8765C67.1688 18.0699 68.5379 15.7524 70.3688 14.5445C71.0978 14.0362 71.899 13.7834 72.7079 13.8064C72.7969 13.81 72.8806 13.7463 72.9292 13.6382C72.9615 13.518 72.957 13.3834 72.9168 13.2682C72.6096 11.9041 72.6024 10.4355 72.8963 9.06531C73.4165 6.79762 74.5246 4.85448 77.5673 2.61255Z" fill="#D65132"/>
<path fill-rule="evenodd" clip-rule="evenodd" d="M66.8359 32.9945C66.9817 33.5088 67.0836 34.0471 67.1391 34.5973C67.228 35.4937 67.8361 36.1091 68.7542 35.646C68.4685 35.7707 68.1588 35.6608 67.9454 35.3591C67.8531 35.1132 67.8163 34.8316 67.8403 34.5538L69.9114 34.625C70.2137 34.25 70.4939 33.839 70.7489 33.3962L68.9032 33.1983L66.8359 32.9945Z" fill="#D65132"/>
<path fill-rule="evenodd" clip-rule="evenodd" d="M97.9107 23.0335C100.677 22.8811 102.358 21.5652 102.865 20.0455C100.542 22.8158 95.1385 20.7737 92.8473 19.2125C91.6612 18.3609 90.5094 17.4122 89.3975 16.371C90.2871 17.6322 90.9984 19.1323 91.4919 20.7876C93.4027 22.5382 95.6587 23.3276 97.9106 23.0335H97.9107Z" fill="#D65132"/>
<path fill-rule="evenodd" clip-rule="evenodd" d="M99.5159 8.70124C99.4159 7.91402 99.1639 7.18397 98.7891 6.59583C100.027 9.19988 97.8505 9.92213 96.3298 10.3555C94.8091 10.7888 90.75 11.1252 90.75 11.1252C90.75 11.1252 94.7354 11.8396 95.9637 12.17C95.965 12.172 99.7249 11.7228 99.5159 8.70124Z" fill="#D65132"/>
<path fill-rule="evenodd" clip-rule="evenodd" d="M63.8277 12.5382C62.3167 11.9782 62.3249 10.9136 63.049 10.4407C62.1351 10.9215 61.5735 11.5745 61.482 12.0237C61.3222 12.8152 61.6719 13.2743 62.7772 13.8877C63.6323 14.3351 64.469 14.8537 65.2827 15.441C66.0324 15.1218 66.8001 14.8993 67.5768 14.7762C66.3751 13.8715 65.1206 13.1226 63.8277 12.5382Z" fill="#BA422B"/>
<path fill-rule="evenodd" clip-rule="evenodd" d="M59.3289 24.4008C58.0747 25.2892 57.3519 25.7859 57.453 24.9093C57.281 25.532 57.2869 26.2281 57.4693 26.8445C58.0077 27.6697 59.4121 25.7265 61.4439 25.3387C61.7325 24.2358 62.1377 23.2044 62.6448 22.2815C61.5129 22.8974 60.406 23.6049 59.3289 24.4007V24.4008Z" fill="#BA422B"/>
<path fill-rule="evenodd" clip-rule="evenodd" d="M91.6486 1.68047C87.5608 -0.00345206 79.0435 0.946362 75.4556 5.75278C74.2833 7.32194 77.3916 6.32069 81.3209 6.40578C85.0162 6.57828 88.6944 7.20851 92.3152 8.28956C96.2542 9.55005 98.8636 9.20376 98.5891 7.74541C98.3146 6.28706 95.6176 3.31692 91.6486 1.68047Z" fill="#EE7249"/>
<path fill-rule="evenodd" clip-rule="evenodd" d="M102.587 19.4421C102.918 18.2331 101.187 15.6132 98.6098 14.1667C96.0331 12.7202 92.3169 11.721 91.4861 12.1761C90.5654 12.6826 93.3879 18.2806 97.5606 20.0813C101.178 21.6425 102.307 20.4632 102.587 19.4421Z" fill="#EE7249"/>
<path fill-rule="evenodd" clip-rule="evenodd" d="M73.4994 16.7607C72.9528 15.6922 70.9158 16.8814 69.6848 19.9268C68.1122 23.823 68.7024 29.8839 69.8064 30.4439C70.9103 31.0039 72.4788 27.2344 73.0499 24.0565C73.6209 20.8786 73.9775 17.6987 73.4994 16.7607Z" fill="#EE7249"/>
<path fill-rule="evenodd" clip-rule="evenodd" d="M63.4663 10.8746C62.9103 11.1632 63.3187 12.2626 64.2752 12.2947C65.2317 12.3268 68.9205 11.9786 68.8726 11.4014C68.8248 10.8242 65.8886 9.60558 63.4663 10.8746Z" fill="#E26644"/>
<path fill-rule="evenodd" clip-rule="evenodd" d="M58.0757 24.3988C58.2123 24.6442 58.9788 24.2583 59.6906 23.2452C60.4024 22.2321 62.471 18.795 62.6458 18.3596C62.8206 17.9243 61.1866 18.7356 59.6906 20.7915C58.1946 22.8475 57.9254 24.1357 58.0757 24.3988Z" fill="#E26644"/>
<path fill-rule="evenodd" clip-rule="evenodd" d="M95.0986 13.2604C96.6398 13.8125 100.23 14.8098 102.299 18.4942C101.369 17.3326 100.318 16.3915 99.1851 15.7061C97.8545 14.7843 96.4902 13.9679 95.0986 13.2604V13.2604Z" fill="#F49A6E"/>
<path fill-rule="evenodd" clip-rule="evenodd" d="M80.3771 2.61254C84.3398 1.28052 88.4606 1.28052 92.4234 2.61254C94.403 3.33857 96.2092 4.82953 97.6493 6.92623C95.466 5.40236 93.1429 4.34079 90.7511 3.77406C91.9615 3.84432 93.165 4.07279 94.3471 4.45673C92.2767 2.9085 89.9821 2.09463 87.6522 2.08222C85.2209 1.8593 82.7802 2.03723 80.377 2.61254H80.3771Z" fill="#F49A6E"/>
<path fill-rule="evenodd" clip-rule="evenodd" d="M85.5986 13.6403C88.0395 15.358 89.9804 18.2742 91.076 21.87C90.371 20.2228 89.5401 18.6961 88.599 17.3188C87.6642 15.9849 86.6614 14.7553 85.5986 13.6403V13.6403Z" fill="#F49A6E"/>
<path fill-rule="evenodd" clip-rule="evenodd" d="M73.3082 18.0667C73.2577 22.2199 72.3355 26.2525 70.6646 29.6285C70.4231 28.1671 70.4231 26.6438 70.6642 25.1823C70.7008 26.1139 70.7866 27.0401 70.9214 27.9526C72.2333 24.9684 73.0502 21.5847 73.3082 18.0667Z" fill="#F49A6E"/>
<g style="mix-blend-mode:multiply" opacity="0.5">
<path fill-rule="evenodd" clip-rule="evenodd" d="M81.2966 23.6013C81.2256 22.6416 79.8196 21.7155 77.8155 23.3461C76.4217 24.2324 75.4485 26.1078 75.248 28.293C75.3848 29.0568 77.2102 27.9467 78.4836 27.2244C80.6245 25.9996 81.503 26.4488 81.2966 23.6013Z" fill="#F2A37C"/>
</g>
<g style="mix-blend-mode:multiply" opacity="0.5">
<path fill-rule="evenodd" clip-rule="evenodd" d="M94.7323 28.7995C94.6436 27.909 94.5329 26.9948 94.3976 26.0549C93.9455 25.1287 93.3511 24.3673 92.6611 23.8308C90.6554 22.2003 89.9054 23.6111 89.8957 24.5787C89.8765 26.7554 91.2004 27.072 92.4548 27.6953C93.1744 28.2163 93.9411 28.588 94.7323 28.7994V28.7995Z" fill="#F2A37C"/>
</g>
<path fill-rule="evenodd" clip-rule="evenodd" d="M81.5307 22.4559C81.4391 21.2687 79.8118 20.675 77.8076 22.2976C76.4139 23.184 75.4407 25.0593 75.2402 27.2445C75.377 28.0084 77.2024 26.8963 78.4758 26.174C80.6207 24.9492 81.7191 24.9056 81.5307 22.4559Z" fill="#D65132"/>
<path fill-rule="evenodd" clip-rule="evenodd" d="M79.2377 24.3991C77.3851 25.2717 76.3536 25.6318 76.4383 24.6543C76.523 23.6768 77.5217 22.5173 77.8045 22.2976C76.4109 23.184 75.4378 25.0593 75.2373 27.2445C75.3739 28.0083 77.1993 26.8963 78.4727 26.174C80.6191 24.9571 81.7175 24.9116 81.5276 22.4599C81.4307 23.0773 81.0891 23.5284 79.2377 24.3991Z" fill="#BA422B"/>
<path fill-rule="evenodd" clip-rule="evenodd" d="M89.9027 23.5263C89.9109 22.5587 90.6624 21.1518 92.6681 22.7784C94.6738 24.4049 95.0714 26.7359 94.9306 27.4977C94.7899 28.2596 93.757 27.286 92.4618 26.6429C91.2006 26.0196 89.8767 25.7109 89.9027 23.5263Z" fill="#D65132"/>
<path fill-rule="evenodd" clip-rule="evenodd" d="M94.1552 26.6271C93.595 26.1383 92.0567 25.2875 91.1154 24.4247C90.174 23.562 90.4567 22.2659 91.2014 22.0502C90.8892 21.9604 90.5653 22.0723 90.3146 22.3567C90.064 22.6411 89.9114 23.0696 89.8967 23.5303C89.8775 25.707 91.2014 26.0256 92.4558 26.6469C93.7496 27.29 94.7783 28.2655 94.9246 27.5017C94.9751 26.9717 94.9163 26.4319 94.7552 25.9504C94.9163 26.4391 94.7141 27.1178 94.1552 26.6271Z" fill="#BA422B"/>
<path fill-rule="evenodd" clip-rule="evenodd" d="M92.8459 40.777C90.6341 41.0079 88.55 39.2552 87.592 36.3586C86.634 33.462 86.9974 30.0114 88.508 27.6601C90.0186 25.3088 92.3687 24.5356 94.4325 25.7109C96.4962 26.8863 97.8531 29.7708 97.8533 32.9826C97.9502 37.134 95.712 40.6181 92.8459 40.7769V40.777ZM92.8455 25.9362C90.844 25.7031 88.9485 27.2708 88.0701 29.8858C87.1915 32.5008 87.5095 35.6285 88.8715 37.7655C90.2334 39.9025 92.3605 40.612 94.2306 39.5529C96.1005 38.4938 97.3312 35.8828 97.3309 32.9746C97.4233 29.2444 95.4204 26.1048 92.8455 25.9441V25.9362Z" fill="#19313A"/>
<ellipse cx="79.4307" cy="34.4379" rx="3.87695" ry="5.61503" fill="white"/>
<path opacity="0.2" fill-rule="evenodd" clip-rule="evenodd" d="M77.852 37.8408C76.4712 35.7169 76.2709 32.5018 77.367 30.0543L77.2304 29.8188C75.8825 31.1683 75.2662 33.6 75.6917 35.892C76.117 38.1839 77.4919 39.8405 79.1255 40.0293C80.759 40.218 82.2978 38.898 82.9686 36.7327C81.6762 38.8554 79.5166 39.3231 77.852 37.8408Z" fill="#BAC4CA"/>
<path fill-rule="evenodd" clip-rule="evenodd" d="M75.6071 35.3573C75.6814 33.1202 76.5691 31.1079 77.9394 30.0701C79.7685 28.7401 81.9963 29.7176 83.0082 32.2942C83.0524 31.7921 82.9645 31.2842 82.7622 30.8715C81.7216 28.6778 79.756 27.8543 78.0676 28.9046C76.1587 29.7041 75.0578 32.5916 75.6071 35.3573Z" fill="#19313A"/>
<path fill-rule="evenodd" clip-rule="evenodd" d="M83.3048 34.4373C83.3051 33.8901 83.2494 33.3453 83.1397 32.8212C82.9644 31.9603 82.5024 31.2844 81.9098 31.022C81.165 30.6702 80.3473 30.9098 79.7554 31.6532C78.6054 33.25 78.3408 35.7671 79.1103 37.7874C79.3873 38.3663 79.7774 38.8121 80.2305 39.0677C80.8972 39.403 81.6375 39.1553 82.1352 38.4305C82.8807 37.3821 83.3023 35.9423 83.3048 34.4373Z" fill="#19313A"/>
<path fill-rule="evenodd" clip-rule="evenodd" d="M79.7783 38.7273C79.9211 38.8697 80.0747 38.9879 80.236 39.0795C80.9027 39.4153 81.6433 39.1676 82.1406 38.4423C82.4838 37.954 82.7618 37.3777 82.9601 36.7426C82.1543 38.0527 80.9895 38.7792 79.7783 38.7273Z" fill="#002030"/>
<path fill-rule="evenodd" clip-rule="evenodd" d="M82.558 31.9122C82.3096 31.5439 81.9367 31.4169 81.6012 31.5865C81.2658 31.7562 81.0283 32.1917 80.9923 32.7037C80.846 34.1799 81.5388 35.7965 82.383 35.7965C82.9404 35.7965 83.2028 35.0288 83.1235 33.8771C83.1064 33.1443 82.9054 32.4457 82.558 31.9122V31.9122Z" fill="white"/>
<path fill-rule="evenodd" clip-rule="evenodd" d="M88.2835 33.903C88.2622 33.6723 88.183 33.461 88.061 33.3094C87.8401 33.0721 87.567 32.9596 87.293 32.9928C86.7857 32.9706 86.2847 33.1587 85.8487 33.5349C85.6639 33.6945 85.5388 33.9666 85.5087 34.275L85.4131 35.2307C85.9688 34.6592 86.6349 34.3565 87.3164 34.366C88.218 34.366 88.4093 35.0863 88.4093 35.0863L88.2835 33.903Z" fill="#19313A"/>
<path fill-rule="evenodd" clip-rule="evenodd" d="M87.2979 32.9829C86.7906 32.9604 86.2896 33.1485 85.8538 33.5251C85.669 33.6846 85.5439 33.9566 85.5135 34.2651L85.418 35.2209C85.9737 34.6493 86.6398 34.3466 87.3213 34.3562C88.2229 34.3562 88.4142 35.0764 88.4142 35.0764C88.0931 33.6379 86.6148 34.1563 86.5561 33.8001C86.4974 33.4439 86.7364 33.0521 87.2979 32.9829Z" fill="#002030"/>
<path fill-rule="evenodd" clip-rule="evenodd" d="M74.0555 32.2645L65.6611 30.45L66.0806 33.798L73.9092 34.0691C73.9092 34.0691 74.0321 33.0006 74.0555 32.2645Z" fill="#19313A"/>
<path fill-rule="evenodd" clip-rule="evenodd" d="M73.9516 33.6774L67.5547 32.4248C67.4777 31.8231 67.3097 31.2535 67.0629 30.7567L65.6611 30.454L66.0806 33.8021L73.9092 34.0731C73.9092 34.0731 73.9271 33.9109 73.9516 33.6774Z" fill="#002030"/>
<path fill-rule="evenodd" clip-rule="evenodd" d="M86.6652 36.2536C86.0481 37.362 85.8762 38.8569 86.2116 40.1953C86.4639 41.4992 87.2835 42.4018 88.2186 42.4056C89.1749 42.453 89.6928 41.6497 89.6696 40.6246C89.6491 39.7362 88.9112 39.7184 88.2186 38.4995C87.5807 37.3755 87.4454 35.7173 86.6652 36.2536Z" fill="#EE9681"/>
<path fill-rule="evenodd" clip-rule="evenodd" d="M87.9666 41.5071C86.8555 41.0214 86.1064 39.5188 86.1374 37.8385C86.0365 38.622 86.0627 39.4288 86.2138 40.1952C86.4661 41.4991 87.2857 42.4017 88.2208 42.4055C89.1771 42.453 89.695 41.6496 89.6704 40.6246C89.5092 41.325 88.9816 41.7801 87.9666 41.5071Z" fill="#EB7C74"/>
<path fill-rule="evenodd" clip-rule="evenodd" d="M89.4292 41.3302C89.3939 41.328 89.359 41.3217 89.3242 41.3113C89.2155 41.28 89.1111 41.2158 89.0164 41.1218C88.7613 40.8664 88.5696 40.4689 88.4758 40.0008C88.4376 39.824 88.3345 39.2588 88.5675 39.3693C88.616 39.3955 88.661 39.4386 88.699 39.4956C88.81 39.6409 88.9247 39.7735 89.0355 39.9124C89.2265 40.1587 89.4863 40.3071 89.6735 40.5629C89.7428 40.6503 89.7841 40.7851 89.7862 40.9292C89.7755 41.0951 89.709 41.2368 89.6143 41.2955C89.5548 41.3287 89.4919 41.3406 89.4292 41.3303V41.3302Z" fill="#F8C6A3"/>
<path fill-rule="evenodd" clip-rule="evenodd" d="M79.7946 41.8853C76.3992 41.8853 73.6465 37.8987 73.6465 32.9809C73.6465 28.0631 76.3992 24.0764 79.7946 24.0764C83.1901 24.0764 85.9428 28.0631 85.9428 32.9809C85.9428 37.8987 83.1901 41.8853 79.7946 41.8853ZM79.7935 24.8323C76.6862 24.8323 74.1671 28.4806 74.1671 32.9809C74.1671 37.4812 76.6862 41.1294 79.7935 41.1294C82.9007 41.1294 85.4198 37.4811 85.4198 32.9808C85.4153 28.4838 82.8987 24.8398 79.7936 24.8343L79.7935 24.8323Z" fill="#19313A"/>
<path fill-rule="evenodd" clip-rule="evenodd" d="M84.9841 47.3111C83.4495 47.0051 81.9697 46.2763 80.6243 45.1641C79.3318 44.1747 78.3426 44.0323 78.1144 45.4767C77.7824 47.5663 79.1965 52.8892 83.9429 53.9201C86.2037 54.5749 88.5507 53.8262 90.4123 51.8563C91.0345 51.1559 91.5007 50.2055 91.7522 49.1236C92.0255 47.8651 91.6826 46.3533 89.5432 46.947C88.0453 47.4059 86.5078 47.5287 84.9841 47.3111Z" fill="#C9434D"/>
<path fill-rule="evenodd" clip-rule="evenodd" d="M84.3319 47.1805C83.0351 46.7739 81.7864 46.0946 80.6253 45.1641C79.3327 44.1747 78.3436 44.0323 78.1154 45.4767C78.0687 48.7743 79.4618 51.7565 81.5924 52.9208C83.2394 52.0684 84.3393 49.8103 84.3416 47.2774C84.3416 47.2438 84.3319 47.2121 84.3319 47.1805Z" fill="#7C1423"/>
<path fill-rule="evenodd" clip-rule="evenodd" d="M88.7599 47.1507C87.5119 47.4375 86.2437 47.4914 84.9863 47.311C83.5874 47.0458 82.2341 46.4099 80.9941 45.4352C81.0217 46.1975 81.1526 46.9445 81.3794 47.6336C82.2608 48.6733 83.3221 49.3433 84.448 49.5708C85.6503 49.9136 86.8961 49.7126 88.0167 48.995C88.2979 48.4099 88.5464 47.7931 88.7599 47.1507Z" fill="white"/>
<path opacity="0.2" fill-rule="evenodd" clip-rule="evenodd" d="M83.7553 47.5623C85.3493 48.1101 87.009 48.1182 88.6056 47.5861C88.6972 47.3348 88.7601 47.1507 88.7601 47.1507C87.5121 47.4375 86.2439 47.4914 84.9865 47.311C83.5874 47.0458 82.2341 46.4099 80.9941 45.4352H80.9943C81.0218 46.1975 81.1527 46.9445 81.3796 47.6336C81.9493 48.3853 82.6389 48.9204 83.3866 49.1909C82.698 48.8388 82.1371 48.0978 81.8319 47.1369C81.7441 46.5651 82.2265 46.9944 83.7553 47.5623Z" fill="#BAC4CA"/>
<path fill-rule="evenodd" clip-rule="evenodd" d="M86.9587 53.9457C86.5487 52.6615 84.1182 49.3708 79.2256 50.2692C80.4176 52.3159 82.106 53.6226 83.9433 53.92C84.9418 54.1487 85.9583 54.1573 86.9587 53.9457Z" fill="#EC6469"/>
<path fill-rule="evenodd" clip-rule="evenodd" d="M86.2697 54.0509C84.8577 53.9447 83.4746 53.43 82.2022 52.5372C80.8975 51.2767 81.2036 50.1389 82.3388 50.2616C81.3038 50.0599 80.2548 50.0599 79.2197 50.2616C80.4115 52.3084 82.1 53.6151 83.9373 53.9124C84.7088 54.0854 85.4911 54.1319 86.2697 54.0509V54.0509Z" fill="#DB545B"/>
<path opacity="0.2" fill-rule="evenodd" clip-rule="evenodd" d="M84.722 51.6327C84.0044 51.0504 83.203 50.7191 82.3814 50.665C81.2462 50.8313 83.5197 52.1511 84.5089 52.6735C85.7741 53.3424 85.9243 52.537 84.722 51.6327Z" fill="white"/>
<path opacity="0.2" fill-rule="evenodd" clip-rule="evenodd" d="M86.659 53.2503C86.2704 52.7808 85.7549 52.8012 85.7549 53.3727C85.7549 53.7962 86.0527 54.4952 86.659 54.8371C87.2654 55.1789 87.2849 54.0055 86.659 53.2503Z" fill="white"/>
<path fill-rule="evenodd" clip-rule="evenodd" d="M94.6029 37.1481C95.4486 35.8085 95.3857 31.2574 94.1929 29.9138C92.7456 28.3078 90.6797 28.6535 89.5236 30.6951C88.3673 32.7368 88.5374 35.7386 89.908 37.4799C91.2786 39.2212 93.3557 39.0744 94.6029 37.1481Z" fill="white"/>
<path opacity="0.2" fill-rule="evenodd" clip-rule="evenodd" d="M94.6026 37.1481C94.877 36.6252 95.0479 36.0042 95.0973 35.3514C94.7832 36.3814 94.1745 37.1616 93.4305 37.4878C92.6863 37.8141 91.8811 37.6539 91.2253 37.0492C89.3972 35.2861 89.6322 31.2039 90.3701 29.6348C89.2585 30.6376 88.6474 32.4806 88.802 34.3639C88.9566 36.2473 89.8489 37.8315 91.0917 38.429C92.3346 39.0266 93.7038 38.5297 94.6054 37.1541L94.6026 37.1481Z" fill="#BAC4CA"/>
<path fill-rule="evenodd" clip-rule="evenodd" d="M88.8362 34.8231C88.7727 32.7912 89.5269 30.8897 90.7709 29.9455C91.8651 29.2425 93.1218 29.3082 94.1784 30.1235C94.4412 30.3457 94.6513 30.6783 94.7809 31.0773C94.7524 30.3904 94.5196 29.7551 94.1428 29.336C93.1895 28.3662 91.9554 28.1898 90.8896 28.871C89.19 29.6973 88.2719 32.3586 88.8362 34.8231Z" fill="#19313A"/>
<path fill-rule="evenodd" clip-rule="evenodd" d="M94.2649 30.8103C93.6276 30.536 92.9378 30.7483 92.4327 31.3743C91.4287 32.7681 91.1983 34.9661 91.8713 36.7288C92.3156 37.6991 93.1186 38.1882 93.9083 37.9695C94.5244 37.637 94.9782 36.8669 95.108 35.9334C95.4057 34.5505 95.35 33.0587 94.9509 31.7304C94.8223 31.2971 94.5731 30.9628 94.2649 30.8103Z" fill="#19313A"/>
<path fill-rule="evenodd" clip-rule="evenodd" d="M95.1052 35.9314C95.1788 35.5727 95.2295 35.2051 95.257 34.8331C94.8664 36.488 93.8103 37.6211 92.6035 37.6806C93.0011 37.9951 93.4626 38.0967 93.9067 37.9675C94.5223 37.6346 94.9756 36.8646 95.1052 35.9314Z" fill="#002030"/>
<path fill-rule="evenodd" clip-rule="evenodd" d="M94.5944 31.4475C94.3764 31.1279 94.0507 31.0193 93.7582 31.1688C93.4657 31.3183 93.2592 31.699 93.2282 32.146C93.0997 33.4361 93.7076 34.8509 94.4455 34.8509C94.9333 34.8509 95.1615 34.1801 95.0931 33.1729C95.0782 32.5288 94.901 31.9149 94.5944 31.4475Z" fill="white"/>
<path fill-rule="evenodd" clip-rule="evenodd" d="M65.663 30.4577C63.9638 29.1091 61.8644 29.4369 60.4029 31.2789C59.5012 32.9907 59.1473 35.1788 59.4303 37.2925C59.7131 39.4062 60.6059 41.2443 61.8839 42.3442C63.5464 43.6671 65.5968 43.3971 67.0674 41.6615C67.4405 37.0589 67.4542 32.1456 65.663 30.4577Z" fill="#F8C6A3"/>
<path fill-rule="evenodd" clip-rule="evenodd" d="M62.3408 38.1213C62.3405 37.2475 62.7036 36.4596 63.2606 36.1251C63.8178 35.7906 64.4593 35.9753 64.8857 36.5931C65.3122 37.2109 65.4394 38.1399 65.2083 38.9468C64.9771 39.7536 64.4331 40.2791 63.8298 40.2782C63.0076 40.2769 62.3415 39.3119 62.3408 38.1213Z" fill="#DD8964"/>
<path fill-rule="evenodd" clip-rule="evenodd" d="M63.8292 40.2783C65.3369 39.7517 66.3172 37.6445 66.0881 35.423C65.8588 33.2014 64.496 31.6012 62.9479 31.7359C61.8015 31.8032 60.879 33.1238 60.8193 34.7832C61.2423 33.4143 62.3117 32.7305 63.295 33.2002C65.1189 33.9047 64.5247 37.8543 63.9208 38.1194C63.3169 38.3846 63.8292 40.2783 63.8292 40.2783Z" fill="#DD8964"/>
<path fill-rule="evenodd" clip-rule="evenodd" d="M63.7266 30.1629C62.6596 29.8962 61.567 30.3527 60.762 31.4016C59.7851 32.7537 59.3573 34.7383 59.6292 36.6552C59.6292 36.7007 59.7113 36.7739 59.7166 36.7126C59.7214 34.6311 60.3695 32.662 61.4831 31.3462C62.1671 30.7215 62.9433 30.3397 63.7483 30.2321C63.7827 30.2143 63.7416 30.1629 63.7266 30.1629Z" fill="#FDDEBC"/>
<path fill-rule="evenodd" clip-rule="evenodd" d="M67.5883 42.3462C67.3889 41.5864 67.1675 40.2784 67.1675 40.2784C66.6972 40.8956 66.15 41.3771 65.5551 41.6972C63.9344 42.5613 62.1293 42.2963 60.6611 40.9789C61.0102 41.5362 61.4272 41.9956 61.891 42.3344C63.2379 43.3955 64.8578 43.4376 66.2302 42.4472C68.2386 49.8418 71.3537 52.9346 75.9853 55.7168C77.1932 56.4181 78.451 56.9231 79.7357 57.2226C74.1421 55.7631 69.5115 50.0921 67.5882 42.3462H67.5883Z" fill="#F2A37C"/>
<path fill-rule="evenodd" clip-rule="evenodd" d="M83.0929 54.8265C82.2254 54.5089 81.3939 54.0124 80.624 53.3523C81.1767 54.5137 82.0427 55.2827 83.008 55.4696C84.0392 55.9495 85.1571 55.852 86.1409 55.1965C85.1179 55.2907 84.0909 55.166 83.0929 54.8265Z" fill="#F2A37C"/>
<path fill-rule="evenodd" clip-rule="evenodd" d="M43.8408 104.792C43.8108 107.751 43.1085 115.701 47.322 121.897C51.5356 128.092 59.6457 125.688 61.2715 125.134C62.5021 124.8 63.758 124.706 65.0057 124.857C65.8731 124.831 68.1328 124.024 68.5167 121.529C66.9291 122.578 65.0539 121.59 64.3032 119.309C62.345 114.519 62.4004 108.545 64.4466 103.833C66.3429 99.6139 70.4063 98.6998 71.5156 98.5058C71.2227 97.1869 70.383 96.284 69.4265 96.2599C68.4373 96.0779 65.8893 97.7935 62.3902 99.2657C57.1605 101.466 50.3784 104.965 43.8408 104.792Z" fill="#4477BB"/>
<path fill-rule="evenodd" clip-rule="evenodd" d="M65.3113 98.1577C63.4314 99.3291 61.2426 103.908 60.7412 108.095C61.4442 105.233 62.5751 102.632 64.053 100.477C65.03 99.2819 66.0942 98.2455 67.2268 97.3859C67.4508 97.1129 66.5682 97.3721 65.3113 98.1577Z" fill="#71ABDE"/>
<path fill-rule="evenodd" clip-rule="evenodd" d="M61.2779 125.132C62.5084 124.798 63.7642 124.704 65.0119 124.855C65.8795 124.829 68.1392 124.022 68.5231 121.527C67.3575 122.309 65.9789 121.96 65.0664 120.65L64.1496 121.264C64.1496 121.264 63.5034 123.191 62.0292 120.803C60.0112 117.53 60.4034 110.442 60.4034 110.442C59.3951 118.873 61.9063 122.243 61.5921 122.487C61.2779 122.73 55.7021 124.804 51.8411 121.329C47.9802 117.854 48.871 107.468 50.9749 106.11C53.8025 104.533 56.5602 102.704 59.2323 100.635L59.2325 100.635C54.5735 102.669 49.1221 104.931 43.8457 104.79C43.8157 107.749 43.1134 115.699 47.3269 121.895C51.5404 128.09 59.6508 125.686 61.2779 125.132Z" fill="#3E65AE"/>
<path fill-rule="evenodd" clip-rule="evenodd" d="M65.707 100.257C67.2944 99.4032 68.9547 98.8659 70.642 98.6602C70.0026 97.5679 68.0093 97.9953 65.707 100.257Z" fill="#295296"/>
<path fill-rule="evenodd" clip-rule="evenodd" d="M71.5228 98.5059C73.1049 98.1596 79.1738 97.8034 82.3558 100.443C85.0098 102.338 86.4476 106.587 85.8562 110.786C85.5952 114.744 68.5224 121.529 68.5224 121.529C68.5224 121.529 67.9759 123.199 65.9662 122.607C63.9565 122.016 62.5082 119.322 62.0627 113.831C61.6173 108.34 63.4003 102.525 65.7065 100.263C67.183 98.9506 68.9197 98.3886 70.6415 98.6662L71.5228 98.5059Z" fill="#F8C6A3"/>
<path fill-rule="evenodd" clip-rule="evenodd" d="M73.6373 109.718C71.5784 110.714 69.6959 112.353 68.1232 114.52C65.4165 117.86 63.9546 118.478 62.9872 114.718C62.1865 110.305 62.7397 105.606 64.5049 101.826C62.6178 105.196 61.7366 109.516 62.0566 113.829C62.5022 119.323 63.9531 122.014 65.9603 122.605C67.9674 123.197 68.5178 121.527 68.5178 121.527C68.5178 121.527 70.6232 112.64 73.6373 109.718Z" fill="#F2A37C"/>
<path fill-rule="evenodd" clip-rule="evenodd" d="M68.5222 121.527C67.6969 122.319 66.8401 122.912 65.9648 123.297C67.9729 124.269 68.5222 121.527 68.5222 121.527Z" fill="#295296"/>
<path fill-rule="evenodd" clip-rule="evenodd" d="M85.8565 110.784C85.6065 115.852 81.9149 134.727 81.1088 139.601C80.4052 143.847 79.9665 146.418 79.9665 146.418C75.473 151.562 71.0148 154.265 66.5908 154.37C66.5908 154.37 66.8066 143.831 66.8066 137.901C66.629 132.145 67.1517 126.388 68.3507 120.894C68.7768 119.093 70.8194 112.26 73.6448 109.719C77.4061 106.332 81.1183 109.541 85.8565 110.784Z" fill="#F8C6A3"/>
<path fill-rule="evenodd" clip-rule="evenodd" d="M73.801 138.255C70.5398 138.89 69.6954 138.255 69.0028 133.184C68.3101 128.112 69.1559 118.157 70.1791 115.387C69.4518 117.134 68.8393 118.977 68.3497 120.89C67.1507 126.384 66.6282 132.141 66.806 137.897C66.8058 141.097 66.7429 145.636 66.6855 149.14L69.7323 148.527L79.8084 144.835C79.8084 144.835 80.0476 144.538 80.355 144.085C80.5463 142.949 80.8004 141.429 81.1036 139.597L81.1734 139.179C78.8189 137.91 76.2709 137.591 73.801 138.255Z" fill="#F2A37C"/>
<path fill-rule="evenodd" clip-rule="evenodd" d="M82.7544 113.062C81.8764 112.675 81.0851 111.959 80.4605 110.986C79.8047 109.894 79.5273 108.451 79.1653 108.74C78.4411 109.322 78.8032 113.519 80.2924 114.932C81.2182 115.95 82.458 116.139 83.5099 115.422C84.0332 115.04 84.674 113.82 82.7544 113.062Z" fill="#F2A37C"/>
<path opacity="0.3" fill-rule="evenodd" clip-rule="evenodd" d="M85.8572 110.784C86.4459 106.588 85.0091 102.344 82.3582 100.449C80.2379 99.0195 77.9255 98.2876 75.5869 98.306C78.1173 98.6206 83.5945 100.973 84.771 106.164C85.0685 108.417 85.0815 110.73 84.809 112.99C84.2626 120.82 82.5398 131.678 82.5385 131.688C83.9149 124.816 85.0228 117.837 85.8574 110.784L85.8572 110.784Z" fill="white"/>
<path fill-rule="evenodd" clip-rule="evenodd" d="M79.9643 146.418C80.1966 145.011 80.553 143.653 81.0243 142.377C81.3073 141.831 81.3073 140.877 79.5653 140.333C76.2532 139.828 72.9048 140.315 69.7283 141.764C66.2935 143.4 65.6295 145.171 65.8235 145.919C66.4126 148.65 66.6709 151.508 66.587 154.366C71.003 154.287 75.4625 151.551 79.9643 146.418Z" fill="#EFF8FC"/>
<path fill-rule="evenodd" clip-rule="evenodd" d="M80.7178 143.224C77.9491 142.571 75.1155 142.796 72.4125 143.883C67.4241 145.723 66.1768 147.85 66.1768 147.85C66.2875 148.566 66.3994 149.417 66.4855 150.316C68.275 148.563 70.2905 147.352 72.411 146.754C74.9005 145.795 77.4916 145.518 80.0512 145.937C80.2331 145.013 80.4558 144.107 80.7178 143.224V143.224Z" fill="#4477BB"/>
<g style="mix-blend-mode:multiply" opacity="0.2">
<path fill-rule="evenodd" clip-rule="evenodd" d="M72.5874 152.659C72.2436 152.462 71.8602 152.472 71.5216 152.686C69.4012 153.705 68.9257 151.392 68.9189 149.827C68.9374 148.18 68.7785 146.538 68.4476 144.961C68.2764 144.409 68.2689 143.778 68.4272 143.217C68.5855 142.656 68.8955 142.214 69.2851 141.993C66.2397 143.564 65.6468 145.213 65.8271 145.929C66.416 148.66 66.6744 151.518 66.5906 154.376C68.6434 154.314 70.6729 153.733 72.5874 152.659V152.659Z" fill="#242357"/>
</g>
<path fill-rule="evenodd" clip-rule="evenodd" d="M70.5766 151.836C69.2718 153.066 67.5373 152.685 66.5433 150.949C66.5433 150.949 66.1841 151.26 65.796 152.884C65.4079 154.509 64.9434 158.336 65.796 160.404C67.4333 159.194 69.1701 158.291 70.9645 157.716C73.8371 156.573 76.5728 154.803 79.0773 152.467C80.4149 151.155 86.0262 146.467 90.211 149.404C88.9358 147.131 86.9595 145.934 84.9468 146.216C81.1062 146.279 79.9641 146.414 79.9641 146.414C77.4342 146.523 74.9277 147.148 72.518 148.27C71.011 149.273 71.6136 150.773 70.5766 151.836Z" fill="#4477BB"/>
<g style="mix-blend-mode:multiply" opacity="0.2">
<path fill-rule="evenodd" clip-rule="evenodd" d="M79.0778 152.459C80.0854 151.504 81.1536 150.691 82.268 150.031C82.0112 148.347 81.6177 146.679 81.0493 146.335L80.552 146.366C79.5158 147.39 78.8789 149.068 78.8372 150.884C77.1654 151.901 75.5374 153.064 73.9625 154.367C71.879 155.688 70.7095 155.506 70.2177 154.992C69.5264 154.27 69.5714 152.419 69.5714 152.419C68.4508 152.88 67.25 152.295 66.5492 150.947C66.5492 150.947 66.1899 151.258 65.8018 152.883C65.4137 154.507 64.9493 158.334 65.8018 160.402C67.4391 159.193 69.1758 158.29 70.9703 157.715C73.8415 156.569 76.5751 154.797 79.0778 152.459Z" fill="#242357"/>
</g>
<path fill-rule="evenodd" clip-rule="evenodd" d="M90.2091 149.39C86.2469 146.62 81.0114 150.666 79.3322 152.221C79.0629 150.101 79.515 147.922 80.5469 146.368C82.3613 143.901 89.1721 144.089 90.2091 149.39Z" fill="#EFF8FC"/>
<path fill-rule="evenodd" clip-rule="evenodd" d="M90.2096 149.392C88.521 144.922 83.7241 146.622 82.4576 147.352C81.191 148.082 79.5379 148.612 79.7537 147.872C79.3218 149.232 79.1755 150.746 79.3331 152.225C81.0119 150.668 86.2475 146.62 90.2096 149.392Z" fill="#A9CBD3"/>
<path fill-rule="evenodd" clip-rule="evenodd" d="M90.2083 149.394C89.5264 148.281 88.5777 147.586 87.5549 147.449C85.0146 147.082 82.4664 148.025 80.359 150.112C78.2399 152.118 75.999 153.84 73.6641 155.257C71.4783 156.642 66.9122 157.139 65.5283 159.65C65.2364 160.68 65.1448 161.805 65.2631 162.905C65.2359 164.928 66.132 166.735 67.4642 167.343C68.9753 168.218 73.3761 168.655 78.8575 166.031C84.3388 163.407 87.9526 163.026 90.207 158.344C91.6256 155.714 91.6261 152.024 90.2083 149.394Z" fill="#DEF1F8"/>
<mask id="mask0_733_1991" style="mask-type:luminance" maskUnits="userSpaceOnUse" x="65" y="147" width="27" height="22">
<path fill-rule="evenodd" clip-rule="evenodd" d="M90.2103 149.394C89.5283 148.281 88.5797 147.586 87.5568 147.449C85.0166 147.082 82.4684 148.025 80.3609 150.112C78.2418 152.118 76.001 153.84 73.6661 155.257C71.4803 156.642 66.9142 157.139 65.5302 159.65C65.2384 160.679 65.1468 161.805 65.265 162.905C65.2379 164.927 66.134 166.734 67.4662 167.343C68.9772 168.218 73.378 168.655 78.8594 166.031C84.3408 163.407 87.9546 163.025 90.2089 158.344C91.6276 155.714 91.6281 152.024 90.2103 149.394Z" fill="white"/>
</mask>
<g mask="url(#mask0_733_1991)">
<path d="M91.793 152.222C90.8557 149.554 87.8705 147.35 83.7252 149.267C79.4898 151.226 78.7506 153.852 74.2406 156.322C69.7305 158.791 65.8244 158.008 64.6426 163.576" stroke="#4477BB"/>
</g>
<path fill-rule="evenodd" clip-rule="evenodd" d="M87.4288 149.833C84.4899 149.772 81.6202 151.128 79.2723 153.69C77.2186 155.845 74.9132 157.447 72.467 158.417C70.6338 158.899 68.8352 159.623 67.0934 160.58C65.9867 161.168 65.3115 162.792 65.4703 164.484C65.7848 165.843 66.5294 166.902 67.4733 167.333C68.9843 168.208 73.3852 168.645 78.8652 166.021C84.3453 163.398 87.9604 163.016 90.2147 158.334C91.0968 156.639 91.4441 154.483 91.1711 152.398C90.7216 151.117 90.1163 149.93 87.4288 149.833Z" fill="#E8914F"/>
<path fill-rule="evenodd" clip-rule="evenodd" d="M70.9241 166.88C69.8532 166.958 68.7815 166.757 67.7598 166.286C67.0533 165.984 66.4865 165.218 66.2296 164.219C66.1694 163.06 66.6567 161.989 67.4154 161.613C68.4238 160.957 69.4858 160.492 70.5757 160.227C71.1823 160.049 71.8696 159.848 72.6812 159.509C75.2175 158.506 77.6072 156.845 79.7339 154.606C81.8695 152.274 84.4658 150.997 87.1403 150.963C87.229 150.963 87.3192 150.963 87.4135 150.963C89.7005 151.042 90.1283 151.932 90.4192 152.767C90.6103 154.506 90.3034 156.282 89.5694 157.685C87.9955 160.954 85.6728 161.921 82.1589 163.389C81.1 163.831 79.9005 164.331 78.6175 164.947C76.1403 166.177 73.5441 166.829 70.9255 166.88L70.9241 166.88Z" fill="#D1783B"/>
<mask id="mask1_733_1991" style="mask-type:luminance" maskUnits="userSpaceOnUse" x="66" y="150" width="25" height="17">
<path fill-rule="evenodd" clip-rule="evenodd" d="M70.9251 166.88C69.8542 166.958 68.7825 166.757 67.7608 166.286C67.0543 165.984 66.4874 165.218 66.2306 164.218C66.1704 163.06 66.6577 161.989 67.4164 161.612C68.4247 160.957 69.4868 160.492 70.5767 160.227C71.1833 160.049 71.8706 159.847 72.6821 159.509C75.2185 158.506 77.6081 156.844 79.7349 154.606C81.8705 152.274 84.4668 150.997 87.1413 150.963C87.23 150.963 87.3202 150.963 87.4144 150.963C89.7015 151.042 90.1293 151.932 90.4201 152.767C90.6113 154.506 90.3044 156.282 89.5704 157.684C87.9965 160.953 85.6738 161.921 82.1599 163.389C81.101 163.83 79.9015 164.331 78.6185 164.946C76.1413 166.177 73.545 166.829 70.9264 166.88L70.9251 166.88Z" fill="white"/>
</mask>
<g mask="url(#mask1_733_1991)">
<path fill-rule="evenodd" clip-rule="evenodd" d="M88.6514 160.578L89.5104 151.139L90.0279 151.238L89.1688 160.676L88.6514 160.578Z" fill="#C66D32"/>
<path fill-rule="evenodd" clip-rule="evenodd" d="M86.4355 162.438L87.5227 150.494L88.0401 150.593L86.953 162.536L86.4355 162.438Z" fill="#C66D32"/>
<path fill-rule="evenodd" clip-rule="evenodd" d="M84.3027 163.512L85.4106 151.161L85.9281 151.259L84.8203 163.609L84.3027 163.512Z" fill="#C66D32"/>
<path fill-rule="evenodd" clip-rule="evenodd" d="M82.1562 164.442L83.3678 151.553L83.8835 151.654L82.672 164.544L82.1562 164.442Z" fill="#C66D32"/>
<path fill-rule="evenodd" clip-rule="evenodd" d="M80.0303 165.431L81.1088 153.23L81.6266 153.326L80.548 165.527L80.0303 165.431Z" fill="#C66D32"/>
<path fill-rule="evenodd" clip-rule="evenodd" d="M77.9375 165.869L78.9145 155.144L79.432 155.243L78.4549 165.968L77.9375 165.869Z" fill="#C66D32"/>
<path fill-rule="evenodd" clip-rule="evenodd" d="M75.8242 166.724L76.6831 157.288L77.2006 157.386L76.3417 166.823L75.8242 166.724Z" fill="#C66D32"/>
<path fill-rule="evenodd" clip-rule="evenodd" d="M73.6719 167.614L74.531 158.176L75.0484 158.275L74.1893 167.713L73.6719 167.614Z" fill="#C66D32"/>
<path fill-rule="evenodd" clip-rule="evenodd" d="M71.6357 167.705L72.3982 159.328L72.9157 159.427L72.1532 167.804L71.6357 167.705Z" fill="#C66D32"/>
<path fill-rule="evenodd" clip-rule="evenodd" d="M69.5938 167.557L70.2725 160.1L70.7899 160.199L70.1112 167.655L69.5938 167.557Z" fill="#C66D32"/>
<path fill-rule="evenodd" clip-rule="evenodd" d="M67.5986 166.821L68.1446 160.827L68.662 160.926L68.1161 166.919L67.5986 166.821Z" fill="#C66D32"/>
<path fill-rule="evenodd" clip-rule="evenodd" d="M66.3887 162.679L66.5918 161.985L74.8882 167.076L74.6851 167.77L66.3887 162.679Z" fill="#C66D32"/>
<path fill-rule="evenodd" clip-rule="evenodd" d="M69.3896 160.819L69.5906 160.123L78.79 165.695L78.5891 166.391L69.3896 160.819Z" fill="#C66D32"/>
<path fill-rule="evenodd" clip-rule="evenodd" d="M73.5176 159.297L73.7253 158.606L82.5206 164.151L82.3129 164.843L73.5176 159.297Z" fill="#C66D32"/>
<path fill-rule="evenodd" clip-rule="evenodd" d="M76.5117 157.427L76.7153 156.734L86.0142 162.458L85.8107 163.151L76.5117 157.427Z" fill="#C66D32"/>
<path fill-rule="evenodd" clip-rule="evenodd" d="M79.2334 155.087L79.4427 154.394L88.7243 160.28L88.515 160.972L79.2334 155.087Z" fill="#C66D32"/>
<path fill-rule="evenodd" clip-rule="evenodd" d="M81.7012 153.036L81.9042 152.34L90.672 157.702L90.469 158.398L81.7012 153.036Z" fill="#C66D32"/>
<path fill-rule="evenodd" clip-rule="evenodd" d="M85.1836 151.307L85.3866 150.611L91.346 154.256L91.143 154.953L85.1836 151.307Z" fill="#C66D32"/>
</g>
<path fill-rule="evenodd" clip-rule="evenodd" d="M90.4207 152.771C90.3962 152.702 90.3702 152.633 90.3428 152.573C90.3277 153.974 90.0104 155.333 89.4355 156.46C87.8618 159.729 85.5406 160.698 82.0237 162.165C80.9648 162.606 79.7653 163.106 78.4823 163.722C76.0056 164.952 73.4097 165.605 70.7916 165.655C69.7209 165.733 68.649 165.532 67.6273 165.061C67.054 164.795 66.5662 164.239 66.2528 163.494C66.2153 163.736 66.2078 163.986 66.2308 164.232C66.4877 165.232 67.0547 165.998 67.7612 166.3C68.7829 166.77 69.8548 166.971 70.9255 166.894V166.894C73.5441 166.843 76.1404 166.191 78.6175 164.961C79.9004 164.345 81.1001 163.845 82.1589 163.405C85.6743 161.939 87.9956 160.969 89.571 157.7C90.3071 156.294 90.6142 154.513 90.4209 152.771H90.4207Z" fill="#C66D32"/>
<path d="M91.1739 150.961L88.4414 160.399" stroke="#E8914F"/>
<path d="M88.9591 150.314L86.2266 162.258" stroke="#E8914F"/>
<path d="M86.8185 150.983L84.0859 163.33" stroke="#E8914F"/>
<path d="M84.6778 151.374L81.9453 164.266" stroke="#E8914F"/>
<path d="M82.5528 153.048L79.8203 165.249" stroke="#E8914F"/>
<path d="M80.462 154.964L77.7295 165.691" stroke="#E8914F"/>
<path d="M78.3438 157.107L75.6113 166.546" stroke="#E8914F"/>
<path d="M76.1954 157.997L73.4629 167.436" stroke="#E8914F"/>
<path d="M74.1583 159.149L71.4258 167.525" stroke="#E8914F"/>
<path d="M72.1153 159.92L69.3828 167.378" stroke="#E8914F"/>
<path d="M70.1202 160.647L67.3877 166.641" stroke="#E8914F"/>
<path d="M66.0195 162.103L74.3155 167.195" stroke="#E8914F"/>
<path d="M69.0195 160.241L78.2145 165.807" stroke="#E8914F"/>
<path d="M73.1494 158.721L81.9454 164.266" stroke="#E8914F"/>
<path d="M76.1426 156.849L85.4441 162.58" stroke="#E8914F"/>
<path d="M78.8672 154.513L88.1496 160.398" stroke="#E8914F"/>
<path d="M81.332 152.459L90.0993 157.819" stroke="#E8914F"/>
<path d="M84.8135 150.729L90.7745 154.687" stroke="#E8914F"/>
<defs>
<linearGradient id="paint0_linear_733_1991" x1="39.8716" y1="120.168" x2="39.8716" y2="181.095" gradientUnits="userSpaceOnUse">
<stop stop-color="#F59D10" stop-opacity="0.501961"/>
<stop offset="0.144" stop-color="#F59D10" stop-opacity="0.470588"/>
<stop offset="0.361" stop-color="#F59D12" stop-opacity="0.384314"/>
<stop offset="0.624" stop-color="#F69E16" stop-opacity="0.247059"/>
<stop offset="0.921" stop-color="#F69F1B" stop-opacity="0.054902"/>
<stop offset="1" stop-color="#F7A01D" stop-opacity="0.01"/>
</linearGradient>
<linearGradient id="paint1_linear_733_1991" x1="84.5705" y1="40.0012" x2="84.5705" y2="24.4304" gradientUnits="userSpaceOnUse">
<stop stop-color="#F2A37C"/>
<stop offset="0.09" stop-color="#F2A47D" stop-opacity="0.968627"/>
<stop offset="0.225" stop-color="#F2A780" stop-opacity="0.882353"/>
<stop offset="0.39" stop-color="#F3AC86" stop-opacity="0.741176"/>
<stop offset="0.577" stop-color="#F4B28D" stop-opacity="0.54902"/>
<stop offset="0.783" stop-color="#F6BB97" stop-opacity="0.298039"/>
<stop offset="1" stop-color="#F8C6A3" stop-opacity="0.01"/>
</linearGradient>
<linearGradient id="paint2_linear_733_1991" x1="95.1432" y1="38.6909" x2="95.1432" y2="24.4052" gradientUnits="userSpaceOnUse">
<stop stop-color="#F2A37C"/>
<stop offset="0.09" stop-color="#F2A47D" stop-opacity="0.968627"/>
<stop offset="0.225" stop-color="#F2A780" stop-opacity="0.882353"/>
<stop offset="0.39" stop-color="#F3AC86" stop-opacity="0.741176"/>
<stop offset="0.577" stop-color="#F4B28D" stop-opacity="0.54902"/>
<stop offset="0.783" stop-color="#F6BB97" stop-opacity="0.298039"/>
<stop offset="1" stop-color="#F8C6A3" stop-opacity="0.01"/>
</linearGradient>
</defs>
</svg>
